<svg width="123" height="100" viewBox="0 0 123 100" fill="none" xmlns="http://www.w3.org/2000/svg">
<path fill-rule="evenodd" clip-rule="evenodd" d="M122.3 60.1752C122.3 65.372 116.782 67.7678 110.078 70.4193L32.5732 99.6137C26.0708 101.024 19.3371 98.5412 15.3076 93.2465L3.50098 77.724L3.29102 77.4408C1.22563 74.6076 0.0770551 71.2098 0.0048828 67.7045L0 67.3529L1.51686e-06 32.6508C0.000270059 28.9043 1.23235 25.2613 3.50098 22.2797L15.3076 6.75723C19.3371 1.46248 26.0708 -1.02077 32.5732 0.390041L110.078 29.5844C116.321 32.2723 122.3 34.5776 122.3 39.8285V60.1752ZM91.792 43.9545C91.7918 41.8164 90.2975 39.9694 88.208 39.516L36.0107 28.1879C33.179 27.5735 30.5029 29.7337 30.5029 32.6313L30.5029 67.3676C30.503 70.2651 33.1791 72.4204 36.0107 71.8061L88.208 60.4828C90.2969 60.0296 91.7909 58.1816 91.792 56.0443V43.9545Z" fill="black"/>
</svg>
