<svg width="208" height="72" viewBox="0 0 208 72" fill="none" xmlns="http://www.w3.org/2000/svg">
<path d="M185.63 34.7083C185.63 26.7464 182.893 19.0266 177.877 12.8433C172.861 6.65992 165.872 2.38897 158.082 0.746557C150.291 -0.895858 142.173 0.19012 135.088 3.8224C128.002 7.45468 122.382 13.4124 119.167 20.6967L135.045 27.7025C136.652 24.0603 139.462 21.0815 143.005 19.2653C146.547 17.4492 150.606 16.9062 154.502 17.7274C158.397 18.5486 161.892 20.6841 164.399 23.7758C166.907 26.8675 168.276 30.7274 168.276 34.7083H185.63Z" fill="#BEBBBB"/>
<path d="M119.166 20.6964C116.871 25.8979 115.889 31.5837 116.306 37.2538C116.723 42.9239 118.526 48.4048 121.558 53.2146C124.589 58.0244 128.756 62.0158 133.692 64.838C138.627 67.6603 144.18 69.2269 149.863 69.4001L150.392 52.054C147.55 51.9674 144.774 51.1841 142.306 49.773C139.838 48.3619 137.755 46.3662 136.239 43.9613C134.724 41.5564 133.822 38.8159 133.613 35.9809C133.405 33.1458 133.896 30.3029 135.043 27.7022L119.166 20.6964Z" fill="#787777"/>
<path d="M149.864 69.4005C155.011 69.5574 160.128 68.5671 164.845 66.5014L157.883 50.6049C155.525 51.6378 152.966 52.1329 150.393 52.0545L149.864 69.4005Z" fill="#D9D9D9"/>
<path d="M164.838 66.5016C171.018 63.7954 176.274 59.3471 179.966 53.7007C183.657 48.0543 185.623 41.4546 185.623 34.7086H168.269C168.269 38.0816 167.286 41.3815 165.44 44.2047C163.595 47.0279 160.966 49.252 157.876 50.6051L164.838 66.5016Z" fill="#D9D9D9"/>
<path d="M20.1348 46.9959L20.294 46.5184L21.3922 44.9584L20.9466 43.6214L14.3091 33.6253L14.8025 32.7817L14.4842 32.6544L16.0918 27.6245L9.80632 25.6402H9.57623L9.44892 25.7781L9.49136 26.0327L9.67182 26.351L9.12002 27.2849V28.0064L8.32419 28.7811L8.28176 28.9721L8.71682 30.1606L8.55765 31.5082L8.00586 31.8795V31.9963L8.38792 32.06L9.16261 33.4926L8.84428 34.0657L9.07774 34.4265H9.37493L9.7357 34.2462L9.99045 34.0446L11.1471 34.2356L10.1496 34.3629L10.001 35.1376H9.82057L9.72513 34.8511C9.72513 34.8511 9.57653 34.9997 9.54467 34.9997C9.51281 34.9997 9.4068 35.1802 9.4068 35.1802L9.24763 36.9523L9.4598 37.0585H9.54467L9.62953 37.8437L10.0965 39.0854L10.5634 39.7645L10.8074 40.0509L10.6801 41.6852C10.6801 41.6852 10.8393 41.9824 10.8393 42.1202C10.8393 42.2581 10.9455 42.5023 10.9455 42.5023L12.3992 42.9268L14.2562 44.1895L14.1501 44.5927L13.959 44.9641L15.1369 45.0278L15.0202 45.3037L14.9672 45.5902L15.763 46.5135L15.3492 47.2774L15.5721 47.4047L15.6146 47.6169L17.1851 47.8717L19.8805 48.1688L20.4217 48.1583L20.1348 46.9959Z" fill="#7D7D7D"/>
<path d="M16.3416 20.0573L20.3103 20.0786L22.8358 20.8639L24.7431 15.1604L24.7248 15.1549L17.1694 13.0655L16.9997 13.1706L17.1059 13.4146L16.9997 14.4768L17.1059 15.2186L17.1272 15.3459L16.7664 15.4308L16.2117 16.3009C16.2117 16.3009 15.9811 15.8128 16.0449 15.7491C16.1086 15.6854 16.342 14.4768 16.342 14.4768L15.387 14.3485L15.0263 14.0937L14.1137 13.1706H13.9016L13.8485 13.4146V14.5606V14.8047L13.4346 16.1204L13.6681 16.4176L13.7105 16.7573L13.3809 17.2239V16.5766L13.2854 16.5553L13.0732 16.8842L13.137 17.4313L14.6545 18.1046V18.5502L14.7288 19.1233L16.3416 20.0573Z" fill="#D9D9D9"/>
<path d="M22.6178 22.7532L23.4667 22.3076L22.8018 20.8556L20.3045 20.0791L16.3357 20.058L14.7228 19.1241L14.6485 18.551L13.0674 17.6915L13.1204 18.6466L12.1548 19.7502L11.5818 21.3526L10.2553 23.6871L9.57617 23.8251V23.9948L9.82021 24.2707V25.6397H9.80627L16.0917 27.6239L20.835 28.8231L22.6178 22.7532Z" fill="#D9D9D9"/>
<path d="M30.6714 25.889L30.1779 25.7776C30.1779 25.7776 29.9232 25.6184 29.8755 25.6397C29.8277 25.6609 27.8699 25.332 27.8699 25.332L27.1696 24.17L26.7875 22.3395L26.6921 22.2758L26.4056 22.5306H26.2783L26.342 21.8939L26.8673 20.4931L26.4375 19.6973L26.2942 18.6626L25.3709 17.1983C25.3709 17.1983 25.5989 16.1759 25.7682 15.4736L24.7367 15.1611L22.8295 20.8646L22.8013 20.8559L23.4661 22.3078L22.6172 22.7535L20.8345 28.8232L29.6209 30.9031L30.6714 25.889Z" fill="#D9D9D9"/>
<path d="M20.9665 42.4348L21.4002 41.018L22.0209 41.0897L22.4508 41.5991L22.5064 41.5832L25.0617 29.8214L20.843 28.8228L16.0997 27.6236L14.492 32.6535L14.8103 32.7808L14.3169 33.6244L20.9545 43.6206L21.2251 43.167L20.9665 42.4348Z" fill="#BEBBBB"/>
<path d="M22.8973 39.7915L22.5081 41.5834L22.4523 41.5993L22.0226 41.09L21.4019 41.0183L20.9682 42.435L21.2268 43.1672L20.9562 43.621L21.4019 44.958L20.3036 46.518L20.1445 46.9955L20.4309 48.1574L19.8897 48.168L19.6562 48.5393L19.7146 48.7622C19.7146 48.7622 25.9543 52.1527 25.9224 52.2005C25.9013 52.2322 28.0127 52.5174 29.4299 52.7049L31.0319 41.3449L22.8973 39.7915Z" fill="#D9D9D9"/>
<path d="M40.7614 26.1911L41.7801 18.3236L26.1173 15.5795L25.7664 15.4732C25.5971 16.1754 25.3691 17.1978 25.3691 17.1978L26.2924 18.6622L26.4357 19.6968L26.8655 20.4927L26.3402 21.8935L26.2765 22.5301H26.4038L26.6903 22.2754L26.7857 22.3391L27.1678 24.1696L27.8682 25.3315C27.8682 25.3315 29.8259 25.6604 29.8737 25.6393C29.9215 25.618 30.1761 25.7772 30.1761 25.7772L30.6696 25.8885L30.867 24.769L40.7614 26.1911Z" fill="#D9D9D9"/>
<path d="M29.2548 32.7696L29.6155 30.9021L25.0478 29.8209L22.8818 39.7907L31.0163 41.3438L32.2048 33.3427L29.2548 32.7696Z" fill="#D9D9D9"/>
<path d="M51.4081 22.1004L50.8511 19.3467L51.0324 18.9113L51.0262 18.9116L41.7941 18.3238L41.0303 24.2218L51.631 24.9496L51.4081 22.1004Z" fill="#D9D9D9"/>
<path d="M40.7613 26.1915L30.8671 24.7695L30.6697 25.889L29.6191 30.9031L29.2583 32.7707L32.2083 33.3437L39.8061 34.3836L40.7613 26.1915Z" fill="#D9D9D9"/>
<path d="M42.2954 42.6658L42.8896 34.5957L39.8122 34.3834L32.2143 33.3435L31.0259 41.3445L40.4807 42.6658H42.2954Z" fill="#D9D9D9"/>
<path d="M39.6998 52.7049L40.5389 42.6659H40.4745L31.0196 41.3448L29.4175 52.7049C30.1314 52.7992 30.6694 52.8691 30.6694 52.8691L30.8668 52.0892L32.659 52.4075L33.8528 52.5348V52.0625L39.6998 52.7049Z" fill="#D9D9D9"/>
<path d="M56.0633 55.9891C56.0793 55.9413 56.2703 55.7822 56.2703 55.7822L56.3817 55.4638L55.9996 55.1933L55.8086 54.8272V54.0154L55.2197 52.9808V50.4658V50.3066L54.8377 50.1953L54.5034 50.3066L53.4528 49.5903L51.4632 49.8927L51.2881 49.638L50.5717 49.431V49.7653H50.3648L50.2056 49.3673L49.9351 49.5902L48.9642 49.7653L48.407 48.9216L48.2638 49.1672H47.9136L46.4014 48.2372L45.2554 47.9824L45.4145 43.9394L40.4691 43.5677L39.7054 52.7049L33.8584 52.0625V52.5348L36.1823 55.4159L36.7871 57.4533L39.0792 58.9655L39.2065 58.8382C39.2065 58.8382 39.5726 57.9308 39.5885 57.8832C39.6045 57.8354 40.2889 57.2465 40.2889 57.2465L42.7561 58.0424L43.8544 59.3475L44.8413 61.5601L45.4303 61.8944L45.5895 62.4196L45.7646 63.6135L47.2767 65.3007H48.6774L49.4096 65.7304H49.5688L49.6485 65.0938L48.8367 62.8175H49.3301L49.4734 61.8784L49.0594 61.7988L49.0116 61.6555L49.7915 61.5918L51.0332 60.6687L53.5162 59.3475L54.0575 59.3794V59.1247L53.8505 59.0609L53.6435 58.2332C53.6435 58.2332 54.2643 57.9308 54.2643 57.9785C54.2643 58.0261 54.2643 58.7902 54.2643 58.7902L55.8083 58.1058L55.848 58.1018L55.9675 57.4532C55.9678 57.4535 56.0474 56.0369 56.0633 55.9891Z" fill="#BEBBBB"/>
<path d="M54.4226 43.1695L42.3043 42.6655H40.5539L40.4785 43.5672L45.424 43.9388L45.2648 47.9819L46.4109 48.2365L47.923 49.1665H48.2732L48.4164 48.9209L48.9736 49.7645L49.9445 49.5894L50.2152 49.3667L50.3744 49.7645H50.5812V49.4303L51.2975 49.6372L51.4726 49.892L53.4623 49.5894L54.5128 50.3058L54.7511 50.2264L54.4226 44.2942V43.1695Z" fill="#D9D9D9"/>
<path d="M49.13 31.6888L50.2762 31.328L51.7406 32.0071L51.6238 30.5002L51.1888 30.0332H51.7406L51.6238 24.9503L41.0231 24.2225L40.7682 26.192L40.2729 30.4397L46.6469 30.7761L49.13 31.6888Z" fill="#D9D9D9"/>
<path d="M59.3732 29.1999L59.0389 29.1362V28.9292L58.4818 28.77L58.0839 28.1812L57.7497 28.1144L56.9377 27.2738L57.2403 26.5417V26.3348L57.0493 25.4593L57.2084 25.316L57.5268 25.1887L57.7814 24.9499L58.0839 23.6766V23.0081L58.4023 22.6738L58.816 22.5463L58.9911 21.9097L61.4901 20.7158L61.3469 20.5726L61.1559 20.4134L59.7393 20.4612L58.9116 20.6045L58.4818 20.6204L57.861 20.4294L57.2722 20.318L57.1606 19.7609L56.8901 19.729L56.7626 20.0633L56.126 19.9041L54.5979 19.3152L54.1311 19.0818L53.6429 18.7878L51.0388 18.9116L50.8574 19.3469L51.4144 22.1007L51.6373 24.9499L51.7541 30.0328H59.3732V29.1999Z" fill="#D9D9D9"/>
<path d="M53.2705 36.9728L52.9309 36.0389L52.464 35.5832L52.3367 34.0441L51.8486 32.6008L51.7424 32.0066L50.2781 31.3275L49.1319 31.6883L46.6488 30.7756L40.2748 30.4391L39.8149 34.3835L42.8924 34.5958L42.7458 36.5863L53.2705 36.9728Z" fill="#D9D9D9"/>
<path d="M53.7405 38.4376L54.0589 37.5464L53.2736 36.9733L42.7489 36.5868L42.3013 42.6665L54.4196 43.1705L54.2499 38.9046L53.7405 38.4376Z" fill="#D9D9D9"/>
<path d="M59.1645 36.4419H59.4509L60.0878 35.2321L60.0559 34.675L61.2497 33.4016V33.2106L59.6101 31.4756V30.4388L59.3555 30.0323H51.7364H51.1846L51.6196 30.4993L51.7364 32.0062L51.8425 32.6005L52.3306 34.0437L52.4579 35.5828L52.8887 36.0033L58.7824 36.0439L59.1645 36.4419Z" fill="#D9D9D9"/>
<path d="M61.8661 44.8464H62.7256V44.3265C62.7256 44.3265 62.7681 43.6793 62.7999 43.6793C62.8318 43.6793 63.4684 43.6793 63.4684 43.6793L63.5852 43.4458L63.3199 43.0002L62.7786 42.6659L62.6725 41.6631L61.3248 40.4109L61.431 40.1987L61.5902 40.082L61.5053 39.2119L61.0172 39.1589L59.4997 37.8005L59.4159 36.4422H59.1708L58.7888 36.0442L52.895 36.0036L52.9312 36.0388L53.2708 36.9727L54.0561 37.5458L53.7377 38.4372L54.2471 38.9041L54.4168 43.1701V44.2949L54.4199 44.3501L61.7919 44.0615L61.8661 44.8464Z" fill="#D9D9D9"/>
<path d="M60.7687 50.7833L60.4503 49.701L60.5459 49.4463L62.1057 46.8359V46.4857L62.6788 45.4829L62.716 44.8462H61.8565L61.7822 44.061L54.4102 44.3494L54.7355 50.2265L54.8316 50.1945L55.2136 50.3058V50.465V51.3086H60.5937L60.7687 50.7833Z" fill="#D9D9D9"/>
<path d="M62.7909 55.9417L62.8706 55.2891L59.703 55.5756L60.9287 52.7105L60.5944 51.3097H55.2144V52.981L55.8032 54.0157V54.8274L55.9943 55.1936L56.3763 55.4641L56.2649 55.7824C56.2649 55.7824 56.0739 55.9416 56.058 55.9894C56.042 56.0372 55.9624 57.4537 55.9624 57.4537L55.8429 58.1024L56.7423 58.0109L56.8855 57.3583L57.0925 57.979L58.1271 58.3292L59.2254 58.2655L58.7957 57.7721L59.6871 57.6129L59.8303 58.3133L60.467 58.2496L60.2441 58.8386L60.5943 58.8067L60.8172 59.0456L61.5016 59.1729L61.82 58.6794L62.0269 58.7908L62.1702 59.2364L62.5044 59.0932V58.4247L62.9024 58.5043L63.3321 59.2366L63.9211 58.8227L63.4914 58.5521L63.205 57.9633L63.7462 57.8678L63.6665 57.3266L63.3004 57.7246L62.7751 57.7087L62.8229 57.3107L63.2209 57.1515L62.7273 57.1039L61.9315 57.47L61.7564 57.1517L61.3584 57.1039L61.2947 56.8491L61.6927 56.6421L62.3771 56.5308L63.3959 56.8491H63.4277V56.7537L62.7909 55.9417Z" fill="#D9D9D9"/>
<path d="M65.337 47.2241H65.2097V46.9482L62.1057 46.8368L60.5458 49.4472L60.4503 49.7018L60.7687 50.7842L60.5936 51.3095L60.9278 52.7103L59.7021 55.5754L62.8697 55.289L62.79 55.9416L63.4267 56.7533V56.8488H63.9201L64.0793 56.6896L65.2521 56.5332C65.1728 55.3974 65.0662 53.8645 65.0662 53.8245C65.0665 53.7607 65.337 47.2241 65.337 47.2241Z" fill="#D9D9D9"/>
<path d="M76.4033 55.3944L76.2653 55.4155L76.0637 55.1396L71.3521 55.2723L71.0656 54.8424L66.7148 55.0653L66.9099 56.4872L66.9961 56.4502L67.4577 56.0045L67.5533 56.6571L68.4606 56.5934L68.365 56.2432L68.1104 56.0522L68.4606 55.9089H68.8267V56.1795L68.5721 56.4024L69.1293 56.3227L69.4636 56.3386L69.7183 56.4978L69.8138 56.4659L69.9729 56.2908L70.0843 56.243C70.0843 56.243 70.3548 56.3863 70.3708 56.4341C70.3867 56.4819 70.2435 56.7046 70.2435 56.7046L70.5459 57.3572H71.0074H71.7397L72.0421 57.1026L72.5674 56.641L73.013 56.4819L73.5383 56.641L73.4586 56.9753L73.6549 57.0177L74.1005 57.0815C74.1005 57.0815 74.2491 57.3679 74.2491 57.3574C74.2491 57.3468 74.472 57.5165 74.472 57.5165L74.8222 57.7076C74.8222 57.7076 74.8752 58.1426 74.8541 58.2064C74.8329 58.2701 74.9602 58.2701 74.9602 58.2701L75.13 58.0685L75.4271 58.2701L75.6712 58.8643L75.5332 59.7557C75.5332 59.7557 75.4801 60.6472 75.4907 60.7107C75.5013 60.7745 75.8515 61.0504 75.8515 61.0504L75.9682 60.9761L76.0107 60.7426L76.329 60.5516V61.2201L76.085 61.4536L75.9258 61.549L75.8834 61.9098L76.1698 62.4934L76.4457 62.6526L76.6686 62.5147L77.1142 62.398C77.1142 62.398 77.3796 62.7163 77.3796 62.7482C77.3796 62.78 77.1674 63.0454 77.1674 63.0454C77.1674 63.0454 76.8809 63.0984 76.8491 63.1197C76.8172 63.141 76.8385 63.438 76.8385 63.438L76.9658 63.5972L77.3054 63.5334L77.6343 63.2257L78.2499 64.4779L78.6001 64.5309L79.1518 64.637V64.8705L78.9608 65.104L78.8017 65.2844L78.8547 65.4754H79.1517V65.7302C79.1517 65.7302 79.0244 65.8575 79.0244 65.8894C79.0244 65.9212 79.1517 66.1015 79.1517 66.1015L79.9264 66.0167L80.372 65.5816C80.372 65.5816 80.3401 65.3268 80.372 65.2951C80.4039 65.2633 80.372 65.1041 80.372 65.1041L80.319 64.5629L80.6162 64.2445L80.9134 63.9792L80.871 63.0878L80.404 61.6127L78.7911 58.9916L78.8441 58.843L79.1837 58.9597L79.205 58.7793L78.2924 57.9092C78.2924 57.9092 78.5472 57.7819 78.5578 57.75C78.5683 57.7181 77.7406 56.137 77.7406 56.137L77.6982 55.2669L77.5476 54.6831L76.5735 54.6301L76.4033 55.3944Z" fill="#7D7D7D"/>
<path d="M64.7659 31.4432L64.3202 30.2813L64.2248 29.5172L65.2276 26.7793L65.4346 25.9038L65.0525 26.3813L64.6226 27.0658C64.6226 27.0658 64.2724 27.1612 64.2406 27.2887C64.2087 27.416 63.9382 27.9572 63.9382 27.9572L63.8268 27.4797L64.3362 26.6202L64.3933 26.3982L64.0497 25.8879L63.5563 25.0283L61.9804 24.0733L61.1049 24.221L60.6433 23.755V23.5799L60.2613 23.7391L60.0224 23.6436L59.7836 23.0865L59.5607 23.1661L58.0804 23.6755L57.778 24.9488L57.5234 25.1877L57.2051 25.315L57.0459 25.4582L57.237 26.3337V26.5406L56.9346 27.2729L57.7463 28.1135L58.0806 28.1803L58.4786 28.7691L59.0357 28.9283V29.1353L59.37 29.199V30.032L59.6248 30.4383V31.4753L60.0396 31.9143L64.7807 31.7649L64.7659 31.4432Z" fill="#BEBBBB"/>
<path d="M64.334 42.6819L64.7479 42.3L65.671 39.1484L65.2801 32.9335L64.7957 32.1446L64.7784 31.7657L60.0372 31.9151L61.262 33.2111V33.4021L60.0682 34.6755L60.1001 35.2326L59.4632 36.4424H59.4219L59.5057 37.8006L61.0232 39.1589L61.5114 39.2119L61.5963 40.0821L61.4371 40.1988L61.3309 40.4111L62.6786 41.6633L62.7847 42.6661L63.326 43.0004L63.4019 43.1281L63.6734 42.5625L64.334 42.6819Z" fill="#7D7D7D"/>
<path d="M70.9003 53.3997L71.2186 52.0414L70.4971 50.8105L69.6269 46.672L65.2126 46.9479V47.2238H65.3399C65.3399 47.2238 65.0693 53.7605 65.0693 53.8242C65.0693 53.8642 65.176 55.3972 65.2553 56.533L65.2761 56.5302L65.8014 56.371L66.0243 54.9703L66.3427 56.4505L65.9606 56.7848L66.056 56.8485L66.8931 56.4878L66.6981 55.0658L71.0489 54.843L71.07 54.4503L70.9003 53.3997Z" fill="#D9D9D9"/>
<path d="M69.3611 32.7807L69.4141 32.9504L72.1626 32.7275L72.2232 32.6636L72.0988 32.6319C72.0988 32.6319 72.0351 32.5895 72.067 32.4303C72.0988 32.2712 72.205 31.9104 72.205 31.9104L72.3217 31.4223L72.4438 30.966L72.6826 30.9182L72.8896 30.5202L72.2689 28.0212C72.2689 28.0212 71.8392 27.7823 71.7914 27.8142C71.7436 27.8461 71.7436 27.8461 71.7436 27.8461L71.4252 28.069L71.2023 28.1485L70.9954 28.4032L70.8203 28.7694L70.2631 28.8012L70.1994 28.4829L70.5815 27.9576L70.8839 27.7984L70.9317 27.4642L70.8203 26.1749L70.7248 25.8088L71.0113 25.761L70.486 25.2038L69.8812 25.1242L69.2764 24.9331L68.8149 24.5989L68.3374 24.8535L68.3692 25.331C68.3692 25.331 67.9395 25.5539 67.9236 25.6015C67.9077 25.6493 67.8917 26.4929 67.8917 26.4929L67.6688 26.6202L67.5734 26.079V25.8243L67.2391 26.2541L66.8571 26.9545L66.4272 27.1933L66.5228 27.7505L66.4431 28.8646L66.5069 29.4377L67.0162 30.1222L66.9525 32.1278L66.2104 32.832C66.2458 32.8991 66.2733 32.9501 66.2733 32.9501L69.3611 32.7807Z" fill="#7D7D7D"/>
<path d="M65.5364 41.082L65.9105 40.9308L66.2686 40.9706L66.5392 41.0503L66.762 40.9945L66.9531 40.9308H67.5341L67.7331 40.2304L67.9481 40.2543L68.2584 40.6443L69.1816 39.6495V39.3232L69.9933 38.8935L70.065 38.3682L69.7467 35.5588L69.4071 32.951L69.354 32.7813L66.266 32.951C66.266 32.951 66.2386 32.9 66.2032 32.8329L66.006 33.02L65.6081 33.211L65.3534 33.0518L65.2808 32.9334L65.6719 39.1481L65.0137 41.3953L65.5367 41.3527V41.082H65.5364Z" fill="#BEBBBB"/>
<path d="M73.6315 46.8364V46.6719L73.8119 46.2898L71.4032 46.4861L69.6416 46.6717L70.5117 50.8102L71.2333 52.0411L70.9149 53.3994L71.0847 54.45L71.0635 54.8427L71.35 55.2725L76.0616 55.1399L76.2631 55.4158L76.4012 55.3946L76.5709 54.6305L77.5451 54.6835L77.5259 54.6094L77.3667 54.3759C77.3667 54.3759 77.3454 54.0363 77.3454 54.0046C77.3454 53.9728 77.5152 53.8029 77.5152 53.8029C77.5152 53.8029 77.4833 53.0388 77.5152 53.0177C77.547 52.9964 77.7592 52.901 77.7592 52.901L77.8335 52.381L78.0881 52.2324L78.2261 51.9777L78.205 51.7655L77.9291 51.6701L77.6319 51.8081L77.4515 51.6701L77.4833 50.9802L77.3453 50.7256L73.6315 46.8364Z" fill="#D9D9D9"/>
<path d="M78.0017 46.1358L77.2377 45.6423L74.6114 45.8015L73.805 46.2896L73.6245 46.6716V46.8362L77.3386 50.7254L77.4767 50.98L77.7739 51.4045H78.2726L78.8457 51.3833V51.2136L78.4955 51.1074C78.4955 51.1074 78.4318 51.0331 78.4318 50.9801C78.4318 50.9271 78.591 50.7997 78.591 50.7997L78.9306 50.8527L79.2489 50.8421L80.0236 49.972L80.0555 49.3989L80.1616 49.2397L80.3951 49.4626L80.4694 49.6855L80.8407 49.1671L80.9788 48.8473V48.4333L81.7299 47.569L79.371 45.913L78.0017 46.1358Z" fill="#D9D9D9"/>
<path d="M72.8751 45.6425L74.1484 44.5124L75.7083 43.2708L75.8197 42.8092L72.7795 43.17L65.0755 43.5677V43.9075L62.7451 44.0613C62.7332 44.2014 62.7251 44.3266 62.7251 44.3266V44.8465L62.6878 45.4832L62.1147 46.486V46.8362L65.2187 46.9476L69.6331 46.6717L71.3946 46.486L71.5486 46.4734L71.9996 45.9288L72.8751 45.6425Z" fill="#BEBBBB"/>
<path d="M75.7086 43.2704L74.1486 44.5121L72.8753 45.6421L71.9998 45.9286L71.5488 46.4732L73.8038 46.2894L74.6102 45.8013L77.2365 45.6421L78.0005 46.1356L79.3694 45.9127L81.7282 47.5687L81.7518 47.5416L82.102 47.4778V47.2974L82.3779 47.3398L82.4522 46.9896L82.6963 47.2336L82.8873 47.4247C82.8873 47.4247 82.9403 47.4247 82.9616 47.3928C82.9829 47.361 82.9616 46.9896 82.9616 46.9896L83.1951 46.4697L83.5877 45.9922V45.8225H83.3542L83.3436 45.4617C83.3436 45.4617 83.7257 45.3025 83.7574 45.2812C83.7893 45.2599 84.4684 45.0902 84.4684 45.0902L84.8822 44.9523H85.1369V44.4217H84.9883L84.6806 44.687L84.532 44.74L84.1923 44.6233C84.1923 44.6233 83.9907 44.5278 84.1818 44.5278C84.3728 44.5278 84.6593 44.5173 84.6593 44.5173C84.6593 44.5173 84.8184 44.3051 84.8184 44.2627C84.8184 44.2202 84.7441 44.1671 84.7441 44.1671L84.3091 44.2627L83.8634 44.1671L83.959 43.8912L84.3622 43.9549L84.4895 43.9762L84.4577 43.5941L84.6274 43.6154L84.7123 43.8913C84.7123 43.8913 84.8609 44.0292 84.8927 44.0292C84.9246 44.0292 85.4764 43.5198 85.4764 43.5198L85.1368 43.4137C85.1368 43.4137 84.967 43.4242 84.967 43.4137C84.967 43.4031 85.02 43.3075 85.02 43.3075H85.4764L85.7311 43.074L85.7098 42.639L85.5294 42.2888L85.3649 42.3418L85.3967 42.9838L85.2429 42.9892L85.1899 42.8459V42.5647L84.9937 42.5434L84.654 42.7715L84.2243 42.9094C84.2243 42.9094 84.0068 42.8456 84.0174 42.8086C84.028 42.7715 84.3357 42.5008 84.3357 42.5008L84.6276 42.4743L84.67 42.1878L84.9672 42.2886H85.1317L85.2006 42.1719L85.0202 41.7952L85.1104 41.7263L85.2801 41.8589L85.7949 42.3418L85.3704 41.4928L85.2112 41.2806L85.2149 41.2443L75.82 42.8086L75.7086 43.2704Z" fill="#D9D9D9"/>
<path d="M73.2532 42.0767L74.4948 41.2446L74.6062 40.4248L74.0968 40.0552L74.0014 39.7369L74.0968 39.2275V39.1321H73.6193L73.2213 38.7341H72.9984H72.7915H71.9797L71.5446 38.5112L70.0337 38.1915L70.0536 38.3679L69.9819 38.8932L69.1702 39.3229V39.6492L68.247 40.6441L67.9367 40.254L67.7217 40.2301L67.5227 40.9305H66.9417L66.7507 40.9943L66.5278 41.05L66.2572 40.9704L65.8991 40.9305L65.525 41.0817V41.3523L65.002 41.3949L64.737 42.2993L64.323 42.6814L63.6625 42.562L63.391 43.1276L63.5802 43.4455L63.4635 43.6789C63.4635 43.6789 62.8268 43.6789 62.7949 43.6789C62.777 43.6789 62.7559 43.8822 62.7407 44.061L65.0711 43.9072V43.5674L72.4705 43.1854L73.2048 42.3791L73.2532 42.0767Z" fill="#D9D9D9"/>
<path d="M74.4802 38.58V38.0282L75.0691 37.8744L75.1752 37.1528H75.3822L75.8385 36.4313L76.0614 35.8795L76.4541 35.8265L75.8807 31.6793L75.8491 31.6986C75.8491 31.6986 75.5626 31.5924 75.4989 31.6243C75.4352 31.6562 74.2149 32.696 74.2149 32.696C74.2149 32.696 73.8222 32.5474 73.7904 32.5474C73.7585 32.5474 73.2067 32.9401 73.2067 32.9401L72.6761 33.216L72.3364 33.1522L72.5169 32.9718L72.7185 32.8338L72.6761 32.7808L72.2168 32.6639L72.1561 32.7278L69.4077 32.9506L69.7473 35.5584L70.0458 38.1915L71.5567 38.5112L71.9918 38.7341H72.8035H73.0105H73.2334L73.6314 39.1321H74.1089L74.1567 38.7659L74.4802 38.58Z" fill="#D9D9D9"/>
<path d="M82.9506 38.3196C82.9267 38.3196 82.4174 38.191 82.4174 38.191C82.4174 38.191 82.2423 37.882 82.2582 37.8183C82.2741 37.7545 82.4174 37.4521 82.4174 37.4521L82.4014 37.2452L82.2662 37.0462L81.6692 36.8472L81.3907 36.29C81.3907 36.29 80.9689 36.2502 80.945 36.2502C80.9211 36.2502 80.2765 36.9824 80.2765 36.9824L80.0775 37.0302L80.0217 37.4123L79.1861 38.4788L79.019 38.5664L78.4698 38.3196L78.3186 38.3913V39.02L77.4431 39.5613L77.252 40.4243H76.5516L76.3049 40.6754L76.1537 40.4243H75.8831L75.509 41.1258H75.318L74.6096 40.4243L74.4983 41.2441L73.2567 42.0762L73.2089 42.3786L72.4746 43.1849L72.7792 43.1691L75.8194 42.8083L85.2143 41.2441L85.2796 40.6065L85.0726 40.6489L85.0089 40.8135L84.4625 40.7657L84.436 40.8983L84.0963 40.7445L83.725 40.4633C83.725 40.4633 83.2634 40.32 83.2527 40.336C83.2421 40.3519 82.8971 40.3997 82.8971 40.3997L82.929 40.2352L83.3322 40.1131L83.7513 40.3678L84.3085 40.5588C84.3085 40.5588 84.526 40.6331 84.5314 40.58C84.5368 40.527 84.3457 40.2935 84.3457 40.2935L84.1176 40.1131V39.7204L83.8312 39.6356C83.8312 39.6356 83.7198 39.5772 83.7198 39.5453C83.7198 39.5135 83.9055 39.4232 83.9055 39.4232L83.9798 39.333L83.8577 39.2268L83.8895 38.6486L83.3961 38.3992C83.3964 38.3993 82.9745 38.3196 82.9506 38.3196Z" fill="#D9D9D9"/>
<path d="M80.8591 35.9083L79.6971 35.9163L79.0525 36.1789L78.5351 37.1896H78.3282L78.2327 35.8446L76.5455 36.1152L76.4393 35.8259L76.0467 35.8789L75.8238 36.4307L75.3675 37.1523H75.1605L75.0543 37.8738L74.4655 38.0276V38.5794L74.1418 38.7651L74.094 39.1312V39.2266L73.9985 39.736L74.094 40.0543L74.6033 40.424L75.3117 41.1254H75.5027L75.8768 40.424H76.1473L76.2985 40.6751L76.5453 40.424H77.2457L77.4368 39.5609L78.3123 39.0197V38.391L78.4635 38.3193L79.0126 38.5661L79.1798 38.4784L80.0154 37.4119L80.0712 37.0299L80.2702 36.9821C80.2702 36.9821 80.9148 36.2498 80.9387 36.2498C80.9448 36.2498 80.977 36.2524 81.0213 36.2562L80.9865 36.0906L80.8591 35.9083Z" fill="#D9D9D9"/>
<path d="M86.0261 37.5984L86.2108 37.3014L85.9348 37.089L86.0515 36.9087L85.9773 36.6221L85.5316 36.2295L85.4786 35.6565L85.1178 35.285L84.8949 34.9773L84.7357 34.6272L84.5871 34.5847L84.3325 34.8288L84.3301 34.8291L85.2716 37.5984H86.0261Z" fill="#D9D9D9"/>
<path d="M85.2747 37.5982L84.3332 34.829L78.2339 35.8446L78.3293 37.1897H78.5363L79.0536 36.1789L79.6982 35.9163L80.8602 35.9084L80.9875 36.0914L81.0223 36.257C81.1516 36.2684 81.3855 36.2904 81.3855 36.2904L81.664 36.8476L82.261 37.0466L82.3963 37.2456L82.4122 37.4525C82.4122 37.4525 82.269 37.7549 82.253 37.8187C82.2371 37.8824 82.4122 38.1914 82.4122 38.1914C82.4122 38.1914 82.9215 38.3201 82.9454 38.3201C82.9693 38.3201 83.3911 38.3997 83.3911 38.3997L83.8845 38.6491L84.1604 38.7234L84.2293 38.5218L84.0807 38.3256L83.773 37.7473L83.72 37.5881L83.7837 37.1955L83.72 36.8347L83.8578 36.7286L83.8473 36.6224L83.6457 36.4951L83.6032 36.4314L83.5714 36.1873L84.1338 35.5931L84.1762 35.6885L84.0807 35.9644C84.0807 35.9644 83.9853 36.0812 84.0064 36.166C84.0277 36.2509 84.1869 36.3995 84.1869 36.3995L84.2612 36.8133L84.2401 37.0149L84.049 37.1422L84.1128 37.3543L84.2401 37.3862L84.4522 37.5984L84.3568 37.7788L84.5054 38.2882L84.6008 38.3625L84.7389 38.1503L85.0253 38.1822L85.0891 38.5642L85.1421 38.8614H85.3012L85.6833 38.6067L85.7894 38.2141L85.9699 38.1079V37.694L86.0293 37.5985H85.2747V37.5982Z" fill="#D9D9D9"/>
<path d="M85.1214 33.7792V33.376L84.5802 32.9515V31.9965L84.8773 31.7101C84.8773 31.7101 84.8654 31.4939 84.8527 31.247L84.7873 31.222L84.1028 30.9037V30.6491L83.5138 30.2194L76.9399 31.461L76.8227 31.08L76.7807 31.1267L75.8784 31.6803L76.4518 35.8275L76.558 36.1168L78.2452 35.8462L84.3468 34.8301L84.5803 34.6065V34.4375L85.1214 33.7792Z" fill="#D9D9D9"/>
<path d="M85.9414 32.771C85.8884 32.771 85.7609 32.6543 85.7609 32.6224C85.7609 32.5906 85.8246 32.3041 85.8246 32.3041L86.0432 32.2705V31.6993L84.8555 31.2468C84.8682 31.4939 84.8802 31.7099 84.8802 31.7099L84.583 31.9963V32.9513L85.1242 33.3758V33.779L84.583 34.437V34.6059L84.6041 34.5856L84.7527 34.628L84.9119 34.9782H85.1772L85.3577 35.1374L85.6973 35.5087L85.8141 35.4238L85.8671 35.0525L86.1535 34.437L86.3127 33.9595V33.2167V32.824C86.3127 32.824 85.9945 32.771 85.9414 32.771Z" fill="#D9D9D9"/>
<path d="M86.5146 31.1732L86.3845 30.2182L86.2253 29.5443V27.8676L85.8751 26.3988L85.2863 25.8514V24.7266C85.2863 24.7266 84.9491 24.1362 84.6044 23.5026L82.3839 24.0897L81.0893 26.3288L81.2485 26.4242L81.4395 26.4348L81.3865 26.7107L81.5775 27.1882C81.5775 27.1882 81.5986 27.2625 81.5775 27.2944C81.5562 27.3262 81.5032 27.4748 81.5032 27.4748L80.6968 28.0903L80.007 28.2389L79.4339 28.1965L79.0943 28.1435L77.5662 28.6634L77.5873 29.0774L77.9905 29.4381L77.98 29.7883L76.8228 31.0786L76.9399 31.4596L83.5138 30.218L84.1029 30.6477V30.9023L84.7873 31.2207L86.0404 31.6982V32.2694L86.0977 32.2605L86.3099 32.6001L86.7238 32.5471L87.1059 32.4198C87.1059 32.4198 87.2226 32.1439 87.2545 32.1334C87.2863 32.1228 87.9654 31.8893 87.9654 31.8893L88.931 31.2632L89.3236 30.9661L89.2282 30.8706L88.8356 30.9449L88.4218 31.2421L88.3264 31.2845L87.9443 31.38L87.5622 31.5286L87.212 31.8893L86.777 32.0485L86.5541 32.0272L86.2993 31.9635V31.8043L86.4485 31.732L86.3629 31.5788L86.5146 31.1732Z" fill="#7D7D7D"/>
<path d="M86.2192 29.4967V29.5438L86.3784 30.2177L86.5083 31.1727L86.3571 31.5786L86.4428 31.7317L86.6436 31.6342L87.6093 30.8703L89.1885 30.1596L88.833 28.7737L86.2192 29.4967Z" fill="#D9D9D9"/>
<path d="M90.1976 29.1198H89.8633L89.3713 28.6263L88.8374 28.7742L89.193 30.1601L89.5239 30.0112L89.6936 29.4805L89.9376 29.7247L90.2135 29.6823L90.3353 29.3473L90.1976 29.1198Z" fill="#D9D9D9"/>
<path d="M89.2541 27.1936L86.2192 27.9072V29.4971L89.3669 28.6262L89.8589 29.1197H90.1932L90.3309 29.3472L90.3364 29.3318L90.5593 29.0559L90.9201 29.3213L91.6099 28.8119H91.8221L91.8964 28.6846L91.8645 28.3557L91.8115 28.1647L91.4932 27.8569C91.4932 27.8569 91.3764 27.7402 91.3446 27.7402C91.3127 27.7402 91.2384 27.772 91.1854 27.8356C91.1324 27.8993 91.1111 27.9524 91.1111 27.9524L91.2808 28.0054H91.4081L91.6522 28.2494L91.6946 28.4723L91.3444 28.7163L91.1534 28.8225L90.7926 28.642C90.7926 28.642 90.7077 28.4086 90.7077 28.345C90.7077 28.2814 90.6548 28.0161 90.6548 28.0161L90.3683 27.9099L89.8059 27.9736L89.8378 27.7402L90.188 27.3794L90.2517 27.0186H90.0607L89.9545 26.7003H89.477L89.2541 27.1936Z" fill="#D9D9D9"/>
<path d="M93.3854 20.3445L92.5153 20.2491L91.5071 17.4322L90.8173 17.3266L90.1701 17.0125H90.0109L89.8199 17.3266H89.3742L89.1195 17.1186L88.9603 17.2353L88.3342 19.623L88.6738 20.1854L88.6844 20.5567L88.5571 20.8113L88.5784 20.9599L88.5254 21.1721L88.4087 21.2994L88.3132 21.6283L88.3662 21.989L88.0146 22.1078C88.5827 23.6199 89.735 26.5096 89.735 26.5096L89.936 26.5505L90.2019 26.255V25.8199L90.4672 25.6926L90.5521 25.6077L90.5308 25.3424L90.6476 24.9816L90.8386 24.9922L90.5414 24.7057C90.5414 24.7057 90.4671 24.7057 90.5414 24.6527C90.6157 24.5997 90.8067 24.5466 90.8067 24.5466L90.987 24.6527C90.987 24.6527 91.1781 24.8649 91.2099 24.8543C91.2418 24.8438 91.2524 24.589 91.2524 24.589L91.0932 24.4617L91.1356 24.2388L91.1993 23.9629C91.1993 23.9629 91.5177 23.8675 91.5495 23.9416C91.5814 24.0159 91.6238 24.1221 91.6238 24.1221L91.7511 24.1008L91.6768 22.6364L91.8997 22.8699L91.9953 22.9344L92.1121 22.8169C92.1121 22.8169 92.2288 22.7107 92.3031 22.7214C92.3774 22.732 92.5047 22.87 92.5047 22.87L92.6744 22.9345L92.7169 22.5836C92.7169 22.5836 92.8866 22.6366 92.8973 22.6366C92.9079 22.6366 92.9928 22.7639 92.9928 22.7639L93.1095 22.5834L93.4065 22.4985V22.3394L93.2049 22.1696L93.3428 22.1166L93.4065 22.0423L93.693 21.9256L93.9795 21.968L94.0962 21.7559L94.1386 21.5789L93.3854 20.3445Z" fill="#D9D9D9"/>
<path d="M87.1877 26.1164L87.3574 24.3549L87.6439 24.0895L87.7067 23.6013L87.5166 23.4316V22.7312L84.6011 23.5022C84.9458 24.1357 85.2829 24.7262 85.2829 24.7262V25.8511L85.8718 26.3985L86.222 27.8673V27.9069L87.3784 27.635L87.4154 26.8167L87.1877 26.1164Z" fill="#D9D9D9"/>
<path d="M89.9092 26.5737L89.9298 26.5509L89.7288 26.51C89.7288 26.51 88.5765 23.6204 88.0084 22.1082L87.5748 22.2547L87.511 22.7322V23.4326L87.7011 23.6023L87.6383 24.0905L87.3519 24.3558L87.1821 26.1174L87.4098 26.8178L87.3729 27.6361L89.2514 27.1945L89.4743 26.701H89.9518L89.9092 26.5737Z" fill="#D9D9D9"/>
<path d="M20.1348 46.9959L20.294 46.5184L21.3922 44.9584L20.9466 43.6214L14.3091 33.6253L14.8025 32.7817L14.4842 32.6544L16.0918 27.6245L9.80632 25.6402H9.57623L9.44892 25.7781L9.49136 26.0327L9.67182 26.351L9.12002 27.2849V28.0064L8.32419 28.7811L8.28176 28.9721L8.71682 30.1606L8.55765 31.5082L8.00586 31.8795V31.9963L8.38792 32.06L9.16261 33.4926L8.84428 34.0657L9.07774 34.4265H9.37493L9.7357 34.2462L9.99045 34.0446L11.1471 34.2356L10.1496 34.3629L10.001 35.1376H9.82057L9.72513 34.8511C9.72513 34.8511 9.57653 34.9997 9.54467 34.9997C9.51281 34.9997 9.4068 35.1802 9.4068 35.1802L9.24763 36.9523L9.4598 37.0585H9.54467L9.62953 37.8437L10.0965 39.0854L10.5634 39.7645L10.8074 40.0509L10.6801 41.6852C10.6801 41.6852 10.8393 41.9824 10.8393 42.1202C10.8393 42.2581 10.9455 42.5023 10.9455 42.5023L12.3992 42.9268L14.2562 44.1895L14.1501 44.5927L13.959 44.9641L15.1369 45.0278L15.0202 45.3037L14.9672 45.5902L15.763 46.5135L15.3492 47.2774L15.5721 47.4047L15.6146 47.6169L17.1851 47.8717L19.8805 48.1688L20.4217 48.1583L20.1348 46.9959Z" stroke="white" stroke-width="0.0765957" stroke-miterlimit="10"/>
<path d="M16.3416 20.0573L20.3103 20.0786L22.8358 20.8639L24.7431 15.1604L24.7248 15.1549L17.1694 13.0655L16.9997 13.1706L17.1059 13.4146L16.9997 14.4768L17.1059 15.2186L17.1272 15.3459L16.7664 15.4308L16.2117 16.3009C16.2117 16.3009 15.9811 15.8128 16.0449 15.7491C16.1086 15.6854 16.342 14.4768 16.342 14.4768L15.387 14.3485L15.0263 14.0937L14.1137 13.1706H13.9016L13.8485 13.4146V14.5606V14.8047L13.4346 16.1204L13.6681 16.4176L13.7105 16.7573L13.3809 17.2239V16.5766L13.2854 16.5553L13.0732 16.8842L13.137 17.4313L14.6545 18.1046V18.5502L14.7288 19.1233L16.3416 20.0573Z" stroke="white" stroke-width="0.0765957" stroke-miterlimit="10"/>
<path d="M22.6178 22.7532L23.4667 22.3076L22.8018 20.8556L20.3045 20.0791L16.3357 20.058L14.7228 19.1241L14.6485 18.551L13.0674 17.6915L13.1204 18.6466L12.1548 19.7502L11.5818 21.3526L10.2553 23.6871L9.57617 23.8251V23.9948L9.82021 24.2707V25.6397H9.80627L16.0917 27.6239L20.835 28.8231L22.6178 22.7532Z" stroke="white" stroke-width="0.0765957" stroke-miterlimit="10"/>
<path d="M30.6714 25.889L30.1779 25.7776C30.1779 25.7776 29.9232 25.6184 29.8755 25.6397C29.8277 25.6609 27.8699 25.332 27.8699 25.332L27.1696 24.17L26.7875 22.3395L26.6921 22.2758L26.4056 22.5306H26.2783L26.342 21.8939L26.8673 20.4931L26.4375 19.6973L26.2942 18.6626L25.3709 17.1983C25.3709 17.1983 25.5989 16.1759 25.7682 15.4736L24.7367 15.1611L22.8295 20.8646L22.8013 20.8559L23.4661 22.3078L22.6172 22.7535L20.8345 28.8232L29.6209 30.9031L30.6714 25.889Z" stroke="white" stroke-width="0.0765957" stroke-miterlimit="10"/>
<path d="M20.9665 42.4348L21.4002 41.018L22.0209 41.0897L22.4508 41.5991L22.5064 41.5832L25.0617 29.8214L20.843 28.8228L16.0997 27.6236L14.492 32.6535L14.8103 32.7808L14.3169 33.6244L20.9545 43.6206L21.2251 43.167L20.9665 42.4348Z" stroke="white" stroke-width="0.0765957" stroke-miterlimit="10"/>
<path d="M22.8973 39.7915L22.5081 41.5834L22.4523 41.5993L22.0226 41.09L21.4019 41.0183L20.9682 42.435L21.2268 43.1672L20.9562 43.621L21.4019 44.958L20.3036 46.518L20.1445 46.9955L20.4309 48.1574L19.8897 48.168L19.6562 48.5393L19.7146 48.7622C19.7146 48.7622 25.9543 52.1527 25.9224 52.2005C25.9013 52.2322 28.0127 52.5174 29.4299 52.7049L31.0319 41.3449L22.8973 39.7915Z" stroke="white" stroke-width="0.0765957" stroke-miterlimit="10"/>
<path d="M40.7614 26.1911L41.7801 18.3236L26.1173 15.5795L25.7664 15.4732C25.5971 16.1754 25.3691 17.1978 25.3691 17.1978L26.2924 18.6622L26.4357 19.6968L26.8655 20.4927L26.3402 21.8935L26.2765 22.5301H26.4038L26.6903 22.2754L26.7857 22.3391L27.1678 24.1696L27.8682 25.3315C27.8682 25.3315 29.8259 25.6604 29.8737 25.6393C29.9215 25.618 30.1761 25.7772 30.1761 25.7772L30.6696 25.8885L30.867 24.769L40.7614 26.1911Z" stroke="white" stroke-width="0.0765957" stroke-miterlimit="10"/>
<path d="M29.2548 32.7696L29.6155 30.9021L25.0478 29.8209L22.8818 39.7907L31.0163 41.3438L32.2048 33.3427L29.2548 32.7696Z" stroke="white" stroke-width="0.0765957" stroke-miterlimit="10"/>
<path d="M51.4081 22.1004L50.8511 19.3467L51.0324 18.9113L51.0262 18.9116L41.7941 18.3238L41.0303 24.2218L51.631 24.9496L51.4081 22.1004Z" stroke="white" stroke-width="0.0765957" stroke-miterlimit="10"/>
<path d="M40.7613 26.1915L30.8671 24.7695L30.6697 25.889L29.6191 30.9031L29.2583 32.7707L32.2083 33.3437L39.8061 34.3836L40.7613 26.1915Z" stroke="white" stroke-width="0.0765957" stroke-miterlimit="10"/>
<path d="M42.2954 42.6658L42.8896 34.5957L39.8122 34.3834L32.2143 33.3435L31.0259 41.3445L40.4807 42.6658H42.2954Z" stroke="white" stroke-width="0.0765957" stroke-miterlimit="10"/>
<path d="M39.6998 52.7049L40.5389 42.6659H40.4745L31.0196 41.3448L29.4175 52.7049C30.1314 52.7992 30.6694 52.8691 30.6694 52.8691L30.8668 52.0892L32.659 52.4075L33.8528 52.5348V52.0625L39.6998 52.7049Z" stroke="white" stroke-width="0.0765957" stroke-miterlimit="10"/>
<path d="M56.0633 55.9891C56.0793 55.9413 56.2703 55.7822 56.2703 55.7822L56.3817 55.4638L55.9996 55.1933L55.8086 54.8272V54.0154L55.2197 52.9808V50.4658V50.3066L54.8377 50.1953L54.5034 50.3066L53.4528 49.5903L51.4632 49.8927L51.2881 49.638L50.5717 49.431V49.7653H50.3648L50.2056 49.3673L49.9351 49.5902L48.9642 49.7653L48.407 48.9216L48.2638 49.1672H47.9136L46.4014 48.2372L45.2554 47.9824L45.4145 43.9394L40.4691 43.5677L39.7054 52.7049L33.8584 52.0625V52.5348L36.1823 55.4159L36.7871 57.4533L39.0792 58.9655L39.2065 58.8382C39.2065 58.8382 39.5726 57.9308 39.5885 57.8832C39.6045 57.8354 40.2889 57.2465 40.2889 57.2465L42.7561 58.0424L43.8544 59.3475L44.8413 61.5601L45.4303 61.8944L45.5895 62.4196L45.7646 63.6135L47.2767 65.3007H48.6774L49.4096 65.7304H49.5688L49.6485 65.0938L48.8367 62.8175H49.3301L49.4734 61.8784L49.0594 61.7988L49.0116 61.6555L49.7915 61.5918L51.0332 60.6687L53.5162 59.3475L54.0575 59.3794V59.1247L53.8505 59.0609L53.6435 58.2332C53.6435 58.2332 54.2643 57.9308 54.2643 57.9785C54.2643 58.0261 54.2643 58.7902 54.2643 58.7902L55.8083 58.1058L55.848 58.1018L55.9675 57.4532C55.9678 57.4535 56.0474 56.0369 56.0633 55.9891Z" stroke="white" stroke-width="0.0765957" stroke-miterlimit="10"/>
<path d="M54.4226 43.1695L42.3043 42.6655H40.5539L40.4785 43.5672L45.424 43.9388L45.2648 47.9819L46.4109 48.2365L47.923 49.1665H48.2732L48.4164 48.9209L48.9736 49.7645L49.9445 49.5894L50.2152 49.3667L50.3744 49.7645H50.5812V49.4303L51.2975 49.6372L51.4726 49.892L53.4623 49.5894L54.5128 50.3058L54.7511 50.2264L54.4226 44.2942V43.1695Z" stroke="white" stroke-width="0.0765957" stroke-miterlimit="10"/>
<path d="M49.13 31.6888L50.2762 31.328L51.7406 32.0071L51.6238 30.5002L51.1888 30.0332H51.7406L51.6238 24.9503L41.0231 24.2225L40.7682 26.192L40.2729 30.4397L46.6469 30.7761L49.13 31.6888Z" stroke="white" stroke-width="0.0765957" stroke-miterlimit="10"/>
<path d="M59.3732 29.1999L59.0389 29.1362V28.9292L58.4818 28.77L58.0839 28.1812L57.7497 28.1144L56.9377 27.2738L57.2403 26.5417V26.3348L57.0493 25.4593L57.2084 25.316L57.5268 25.1887L57.7814 24.9499L58.0839 23.6766V23.0081L58.4023 22.6738L58.816 22.5463L58.9911 21.9097L61.4901 20.7158L61.3469 20.5726L61.1559 20.4134L59.7393 20.4612L58.9116 20.6045L58.4818 20.6204L57.861 20.4294L57.2722 20.318L57.1606 19.7609L56.8901 19.729L56.7626 20.0633L56.126 19.9041L54.5979 19.3152L54.1311 19.0818L53.6429 18.7878L51.0388 18.9116L50.8574 19.3469L51.4144 22.1007L51.6373 24.9499L51.7541 30.0328H59.3732V29.1999Z" stroke="white" stroke-width="0.0765957" stroke-miterlimit="10"/>
<path d="M53.2705 36.9728L52.9309 36.0389L52.464 35.5832L52.3367 34.0441L51.8486 32.6008L51.7424 32.0066L50.2781 31.3275L49.1319 31.6883L46.6488 30.7756L40.2748 30.4391L39.8149 34.3835L42.8924 34.5958L42.7458 36.5863L53.2705 36.9728Z" stroke="white" stroke-width="0.0765957" stroke-miterlimit="10"/>
<path d="M53.7405 38.4376L54.0589 37.5464L53.2736 36.9733L42.7489 36.5868L42.3013 42.6665L54.4196 43.1705L54.2499 38.9046L53.7405 38.4376Z" stroke="white" stroke-width="0.0765957" stroke-miterlimit="10"/>
<path d="M59.1645 36.4419H59.4509L60.0878 35.2321L60.0559 34.675L61.2497 33.4016V33.2106L59.6101 31.4756V30.4388L59.3555 30.0323H51.7364H51.1846L51.6196 30.4993L51.7364 32.0062L51.8425 32.6005L52.3306 34.0437L52.4579 35.5828L52.8887 36.0033L58.7824 36.0439L59.1645 36.4419Z" stroke="white" stroke-width="0.0765957" stroke-miterlimit="10"/>
<path d="M61.8661 44.8464H62.7256V44.3265C62.7256 44.3265 62.7681 43.6793 62.7999 43.6793C62.8318 43.6793 63.4684 43.6793 63.4684 43.6793L63.5852 43.4458L63.3199 43.0002L62.7786 42.6659L62.6725 41.6631L61.3248 40.4109L61.431 40.1987L61.5902 40.082L61.5053 39.2119L61.0172 39.1589L59.4997 37.8005L59.4159 36.4422H59.1708L58.7888 36.0442L52.895 36.0036L52.9312 36.0388L53.2708 36.9727L54.0561 37.5458L53.7377 38.4372L54.2471 38.9041L54.4168 43.1701V44.2949L54.4199 44.3501L61.7919 44.0615L61.8661 44.8464Z" stroke="white" stroke-width="0.0765957" stroke-miterlimit="10"/>
<path d="M60.7687 50.7833L60.4503 49.701L60.5459 49.4463L62.1057 46.8359V46.4857L62.6788 45.4829L62.716 44.8462H61.8565L61.7822 44.061L54.4102 44.3494L54.7355 50.2265L54.8316 50.1945L55.2136 50.3058V50.465V51.3086H60.5937L60.7687 50.7833Z" stroke="white" stroke-width="0.0765957" stroke-miterlimit="10"/>
<path d="M62.7909 55.9417L62.8706 55.2891L59.703 55.5756L60.9287 52.7105L60.5944 51.3097H55.2144V52.981L55.8032 54.0157V54.8274L55.9943 55.1936L56.3763 55.4641L56.2649 55.7824C56.2649 55.7824 56.0739 55.9416 56.058 55.9894C56.042 56.0372 55.9624 57.4537 55.9624 57.4537L55.8429 58.1024L56.7423 58.0109L56.8855 57.3583L57.0925 57.979L58.1271 58.3292L59.2254 58.2655L58.7957 57.7721L59.6871 57.6129L59.8303 58.3133L60.467 58.2496L60.2441 58.8386L60.5943 58.8067L60.8172 59.0456L61.5016 59.1729L61.82 58.6794L62.0269 58.7908L62.1702 59.2364L62.5044 59.0932V58.4247L62.9024 58.5043L63.3321 59.2366L63.9211 58.8227L63.4914 58.5521L63.205 57.9633L63.7462 57.8678L63.6665 57.3266L63.3004 57.7246L62.7751 57.7087L62.8229 57.3107L63.2209 57.1515L62.7273 57.1039L61.9315 57.47L61.7564 57.1517L61.3584 57.1039L61.2947 56.8491L61.6927 56.6421L62.3771 56.5308L63.3959 56.8491H63.4277V56.7537L62.7909 55.9417Z" stroke="white" stroke-width="0.0765957" stroke-miterlimit="10"/>
<path d="M65.337 47.2241H65.2097V46.9482L62.1057 46.8368L60.5458 49.4472L60.4503 49.7018L60.7687 50.7842L60.5936 51.3095L60.9278 52.7103L59.7021 55.5754L62.8697 55.289L62.79 55.9416L63.4267 56.7533V56.8488H63.9201L64.0793 56.6896L65.2521 56.5332C65.1728 55.3974 65.0662 53.8645 65.0662 53.8245C65.0665 53.7607 65.337 47.2241 65.337 47.2241Z" stroke="white" stroke-width="0.0765957" stroke-miterlimit="10"/>
<path d="M76.4033 55.3944L76.2653 55.4155L76.0637 55.1396L71.3521 55.2723L71.0656 54.8424L66.7148 55.0653L66.9099 56.4872L66.9961 56.4502L67.4577 56.0045L67.5533 56.6571L68.4606 56.5934L68.365 56.2432L68.1104 56.0522L68.4606 55.9089H68.8267V56.1795L68.5721 56.4024L69.1293 56.3227L69.4636 56.3386L69.7183 56.4978L69.8138 56.4659L69.9729 56.2908L70.0843 56.243C70.0843 56.243 70.3548 56.3863 70.3708 56.4341C70.3867 56.4819 70.2435 56.7046 70.2435 56.7046L70.5459 57.3572H71.0074H71.7397L72.0421 57.1026L72.5674 56.641L73.013 56.4819L73.5383 56.641L73.4586 56.9753L73.6549 57.0177L74.1005 57.0815C74.1005 57.0815 74.2491 57.3679 74.2491 57.3574C74.2491 57.3468 74.472 57.5165 74.472 57.5165L74.8222 57.7076C74.8222 57.7076 74.8752 58.1426 74.8541 58.2064C74.8329 58.2701 74.9602 58.2701 74.9602 58.2701L75.13 58.0685L75.4271 58.2701L75.6712 58.8643L75.5332 59.7557C75.5332 59.7557 75.4801 60.6472 75.4907 60.7107C75.5013 60.7745 75.8515 61.0504 75.8515 61.0504L75.9682 60.9761L76.0107 60.7426L76.329 60.5516V61.2201L76.085 61.4536L75.9258 61.549L75.8834 61.9098L76.1698 62.4934L76.4457 62.6526L76.6686 62.5147L77.1142 62.398C77.1142 62.398 77.3796 62.7163 77.3796 62.7482C77.3796 62.78 77.1674 63.0454 77.1674 63.0454C77.1674 63.0454 76.8809 63.0984 76.8491 63.1197C76.8172 63.141 76.8385 63.438 76.8385 63.438L76.9658 63.5972L77.3054 63.5334L77.6343 63.2257L78.2499 64.4779L78.6001 64.5309L79.1518 64.637V64.8705L78.9608 65.104L78.8017 65.2844L78.8547 65.4754H79.1517V65.7302C79.1517 65.7302 79.0244 65.8575 79.0244 65.8894C79.0244 65.9212 79.1517 66.1015 79.1517 66.1015L79.9264 66.0167L80.372 65.5816C80.372 65.5816 80.3401 65.3268 80.372 65.2951C80.4039 65.2633 80.372 65.1041 80.372 65.1041L80.319 64.5629L80.6162 64.2445L80.9134 63.9792L80.871 63.0878L80.404 61.6127L78.7911 58.9916L78.8441 58.843L79.1837 58.9597L79.205 58.7793L78.2924 57.9092C78.2924 57.9092 78.5472 57.7819 78.5578 57.75C78.5683 57.7181 77.7406 56.137 77.7406 56.137L77.6982 55.2669L77.5476 54.6831L76.5735 54.6301L76.4033 55.3944Z" stroke="white" stroke-width="0.0765957" stroke-miterlimit="10"/>
<path d="M64.7659 31.4432L64.3202 30.2813L64.2248 29.5172L65.2276 26.7793L65.4346 25.9038L65.0525 26.3813L64.6226 27.0658C64.6226 27.0658 64.2724 27.1612 64.2406 27.2887C64.2087 27.416 63.9382 27.9572 63.9382 27.9572L63.8268 27.4797L64.3362 26.6202L64.3933 26.3982L64.0497 25.8879L63.5563 25.0283L61.9804 24.0733L61.1049 24.221L60.6433 23.755V23.5799L60.2613 23.7391L60.0224 23.6436L59.7836 23.0865L59.5607 23.1661L58.0804 23.6755L57.778 24.9488L57.5234 25.1877L57.2051 25.315L57.0459 25.4582L57.237 26.3337V26.5406L56.9346 27.2729L57.7463 28.1135L58.0806 28.1803L58.4786 28.7691L59.0357 28.9283V29.1353L59.37 29.199V30.032L59.6248 30.4383V31.4753L60.0396 31.9143L64.7807 31.7649L64.7659 31.4432Z" stroke="white" stroke-width="0.0765957" stroke-miterlimit="10"/>
<path d="M64.334 42.6819L64.7479 42.3L65.671 39.1484L65.2801 32.9335L64.7957 32.1446L64.7784 31.7657L60.0372 31.9151L61.262 33.2111V33.4021L60.0682 34.6755L60.1001 35.2326L59.4632 36.4424H59.4219L59.5057 37.8006L61.0232 39.1589L61.5114 39.2119L61.5963 40.0821L61.4371 40.1988L61.3309 40.4111L62.6786 41.6633L62.7847 42.6661L63.326 43.0004L63.4019 43.1281L63.6734 42.5625L64.334 42.6819Z" stroke="white" stroke-width="0.0765957" stroke-miterlimit="10"/>
<path d="M70.9003 53.3997L71.2186 52.0414L70.4971 50.8105L69.6269 46.672L65.2126 46.9479V47.2238H65.3399C65.3399 47.2238 65.0693 53.7605 65.0693 53.8242C65.0693 53.8642 65.176 55.3972 65.2553 56.533L65.2761 56.5302L65.8014 56.371L66.0243 54.9703L66.3427 56.4505L65.9606 56.7848L66.056 56.8485L66.8931 56.4878L66.6981 55.0658L71.0489 54.843L71.07 54.4503L70.9003 53.3997Z" stroke="white" stroke-width="0.0765957" stroke-miterlimit="10"/>
<path d="M69.3611 32.7807L69.4141 32.9504L72.1626 32.7275L72.2232 32.6636L72.0988 32.6319C72.0988 32.6319 72.0351 32.5895 72.067 32.4303C72.0988 32.2712 72.205 31.9104 72.205 31.9104L72.3217 31.4223L72.4438 30.966L72.6826 30.9182L72.8896 30.5202L72.2689 28.0212C72.2689 28.0212 71.8392 27.7823 71.7914 27.8142C71.7436 27.8461 71.7436 27.8461 71.7436 27.8461L71.4252 28.069L71.2023 28.1485L70.9954 28.4032L70.8203 28.7694L70.2631 28.8012L70.1994 28.4829L70.5815 27.9576L70.8839 27.7984L70.9317 27.4642L70.8203 26.1749L70.7248 25.8088L71.0113 25.761L70.486 25.2038L69.8812 25.1242L69.2764 24.9331L68.8149 24.5989L68.3374 24.8535L68.3692 25.331C68.3692 25.331 67.9395 25.5539 67.9236 25.6015C67.9077 25.6493 67.8917 26.4929 67.8917 26.4929L67.6688 26.6202L67.5734 26.079V25.8243L67.2391 26.2541L66.8571 26.9545L66.4272 27.1933L66.5228 27.7505L66.4431 28.8646L66.5069 29.4377L67.0162 30.1222L66.9525 32.1278L66.2104 32.832C66.2458 32.8991 66.2733 32.9501 66.2733 32.9501L69.3611 32.7807Z" stroke="white" stroke-width="0.0765957" stroke-miterlimit="10"/>
<path d="M65.5364 41.082L65.9105 40.9308L66.2686 40.9706L66.5392 41.0503L66.762 40.9945L66.9531 40.9308H67.5341L67.7331 40.2304L67.9481 40.2543L68.2584 40.6443L69.1816 39.6495V39.3232L69.9933 38.8935L70.065 38.3682L69.7467 35.5588L69.4071 32.951L69.354 32.7813L66.266 32.951C66.266 32.951 66.2386 32.9 66.2032 32.8329L66.006 33.02L65.6081 33.211L65.3534 33.0518L65.2808 32.9334L65.6719 39.1481L65.0137 41.3953L65.5367 41.3527V41.082H65.5364Z" stroke="white" stroke-width="0.0765957" stroke-miterlimit="10"/>
<path d="M73.6315 46.8364V46.6719L73.8119 46.2898L71.4032 46.4861L69.6416 46.6717L70.5117 50.8102L71.2333 52.0411L70.9149 53.3994L71.0847 54.45L71.0635 54.8427L71.35 55.2725L76.0616 55.1399L76.2631 55.4158L76.4012 55.3946L76.5709 54.6305L77.5451 54.6835L77.5259 54.6094L77.3667 54.3759C77.3667 54.3759 77.3454 54.0363 77.3454 54.0046C77.3454 53.9728 77.5152 53.8029 77.5152 53.8029C77.5152 53.8029 77.4833 53.0388 77.5152 53.0177C77.547 52.9964 77.7592 52.901 77.7592 52.901L77.8335 52.381L78.0881 52.2324L78.2261 51.9777L78.205 51.7655L77.9291 51.6701L77.6319 51.8081L77.4515 51.6701L77.4833 50.9802L77.3453 50.7256L73.6315 46.8364Z" stroke="white" stroke-width="0.0765957" stroke-miterlimit="10"/>
<path d="M78.0017 46.1358L77.2377 45.6423L74.6114 45.8015L73.805 46.2896L73.6245 46.6716V46.8362L77.3386 50.7254L77.4767 50.98L77.7739 51.4045H78.2726L78.8457 51.3833V51.2136L78.4955 51.1074C78.4955 51.1074 78.4318 51.0331 78.4318 50.9801C78.4318 50.9271 78.591 50.7997 78.591 50.7997L78.9306 50.8527L79.2489 50.8421L80.0236 49.972L80.0555 49.3989L80.1616 49.2397L80.3951 49.4626L80.4694 49.6855L80.8407 49.1671L80.9788 48.8473V48.4333L81.7299 47.569L79.371 45.913L78.0017 46.1358Z" stroke="white" stroke-width="0.0765957" stroke-miterlimit="10"/>
<path d="M72.8751 45.6425L74.1484 44.5124L75.7083 43.2708L75.8197 42.8092L72.7795 43.17L65.0755 43.5677V43.9075L62.7451 44.0613C62.7332 44.2014 62.7251 44.3266 62.7251 44.3266V44.8465L62.6878 45.4832L62.1147 46.486V46.8362L65.2187 46.9476L69.6331 46.6717L71.3946 46.486L71.5486 46.4734L71.9996 45.9288L72.8751 45.6425Z" stroke="white" stroke-width="0.0765957" stroke-miterlimit="10"/>
<path d="M75.7086 43.2704L74.1486 44.5121L72.8753 45.6421L71.9998 45.9286L71.5488 46.4732L73.8038 46.2894L74.6102 45.8013L77.2365 45.6421L78.0005 46.1356L79.3694 45.9127L81.7282 47.5687L81.7518 47.5416L82.102 47.4778V47.2974L82.3779 47.3398L82.4522 46.9896L82.6963 47.2336L82.8873 47.4247C82.8873 47.4247 82.9403 47.4247 82.9616 47.3928C82.9829 47.361 82.9616 46.9896 82.9616 46.9896L83.1951 46.4697L83.5877 45.9922V45.8225H83.3542L83.3436 45.4617C83.3436 45.4617 83.7257 45.3025 83.7574 45.2812C83.7893 45.2599 84.4684 45.0902 84.4684 45.0902L84.8822 44.9523H85.1369V44.4217H84.9883L84.6806 44.687L84.532 44.74L84.1923 44.6233C84.1923 44.6233 83.9907 44.5278 84.1818 44.5278C84.3728 44.5278 84.6593 44.5173 84.6593 44.5173C84.6593 44.5173 84.8184 44.3051 84.8184 44.2627C84.8184 44.2202 84.7441 44.1671 84.7441 44.1671L84.3091 44.2627L83.8634 44.1671L83.959 43.8912L84.3622 43.9549L84.4895 43.9762L84.4577 43.5941L84.6274 43.6154L84.7123 43.8913C84.7123 43.8913 84.8609 44.0292 84.8927 44.0292C84.9246 44.0292 85.4764 43.5198 85.4764 43.5198L85.1368 43.4137C85.1368 43.4137 84.967 43.4242 84.967 43.4137C84.967 43.4031 85.02 43.3075 85.02 43.3075H85.4764L85.7311 43.074L85.7098 42.639L85.5294 42.2888L85.3649 42.3418L85.3967 42.9838L85.2429 42.9892L85.1899 42.8459V42.5647L84.9937 42.5434L84.654 42.7715L84.2243 42.9094C84.2243 42.9094 84.0068 42.8456 84.0174 42.8086C84.028 42.7715 84.3357 42.5008 84.3357 42.5008L84.6276 42.4743L84.67 42.1878L84.9672 42.2886H85.1317L85.2006 42.1719L85.0202 41.7952L85.1104 41.7263L85.2801 41.8589L85.7949 42.3418L85.3704 41.4928L85.2112 41.2806L85.2149 41.2443L75.82 42.8086L75.7086 43.2704Z" stroke="white" stroke-width="0.0765957" stroke-miterlimit="10"/>
<path d="M73.2532 42.0767L74.4948 41.2446L74.6062 40.4248L74.0968 40.0552L74.0014 39.7369L74.0968 39.2275V39.1321H73.6193L73.2213 38.7341H72.9984H72.7915H71.9797L71.5446 38.5112L70.0337 38.1915L70.0536 38.3679L69.9819 38.8932L69.1702 39.3229V39.6492L68.247 40.6441L67.9367 40.254L67.7217 40.2301L67.5227 40.9305H66.9417L66.7507 40.9943L66.5278 41.05L66.2572 40.9704L65.8991 40.9305L65.525 41.0817V41.3523L65.002 41.3949L64.737 42.2993L64.323 42.6814L63.6625 42.562L63.391 43.1276L63.5802 43.4455L63.4635 43.6789C63.4635 43.6789 62.8268 43.6789 62.7949 43.6789C62.777 43.6789 62.7559 43.8822 62.7407 44.061L65.0711 43.9072V43.5674L72.4705 43.1854L73.2048 42.3791L73.2532 42.0767Z" stroke="white" stroke-width="0.0765957" stroke-miterlimit="10"/>
<path d="M74.4802 38.58V38.0282L75.0691 37.8744L75.1752 37.1528H75.3822L75.8385 36.4313L76.0614 35.8795L76.4541 35.8265L75.8807 31.6793L75.8491 31.6986C75.8491 31.6986 75.5626 31.5924 75.4989 31.6243C75.4352 31.6562 74.2149 32.696 74.2149 32.696C74.2149 32.696 73.8222 32.5474 73.7904 32.5474C73.7585 32.5474 73.2067 32.9401 73.2067 32.9401L72.6761 33.216L72.3364 33.1522L72.5169 32.9718L72.7185 32.8338L72.6761 32.7808L72.2168 32.6639L72.1561 32.7278L69.4077 32.9506L69.7473 35.5584L70.0458 38.1915L71.5567 38.5112L71.9918 38.7341H72.8035H73.0105H73.2334L73.6314 39.1321H74.1089L74.1567 38.7659L74.4802 38.58Z" stroke="white" stroke-width="0.0765957" stroke-miterlimit="10"/>
<path d="M82.9506 38.3196C82.9267 38.3196 82.4174 38.191 82.4174 38.191C82.4174 38.191 82.2423 37.882 82.2582 37.8183C82.2741 37.7545 82.4174 37.4521 82.4174 37.4521L82.4014 37.2452L82.2662 37.0462L81.6692 36.8472L81.3907 36.29C81.3907 36.29 80.9689 36.2502 80.945 36.2502C80.9211 36.2502 80.2765 36.9824 80.2765 36.9824L80.0775 37.0302L80.0217 37.4123L79.1861 38.4788L79.019 38.5664L78.4698 38.3196L78.3186 38.3913V39.02L77.4431 39.5613L77.252 40.4243H76.5516L76.3049 40.6754L76.1537 40.4243H75.8831L75.509 41.1258H75.318L74.6096 40.4243L74.4983 41.2441L73.2567 42.0762L73.2089 42.3786L72.4746 43.1849L72.7792 43.1691L75.8194 42.8083L85.2143 41.2441L85.2796 40.6065L85.0726 40.6489L85.0089 40.8135L84.4625 40.7657L84.436 40.8983L84.0963 40.7445L83.725 40.4633C83.725 40.4633 83.2634 40.32 83.2527 40.336C83.2421 40.3519 82.8971 40.3997 82.8971 40.3997L82.929 40.2352L83.3322 40.1131L83.7513 40.3678L84.3085 40.5588C84.3085 40.5588 84.526 40.6331 84.5314 40.58C84.5368 40.527 84.3457 40.2935 84.3457 40.2935L84.1176 40.1131V39.7204L83.8312 39.6356C83.8312 39.6356 83.7198 39.5772 83.7198 39.5453C83.7198 39.5135 83.9055 39.4232 83.9055 39.4232L83.9798 39.333L83.8577 39.2268L83.8895 38.6486L83.3961 38.3992C83.3964 38.3993 82.9745 38.3196 82.9506 38.3196Z" stroke="white" stroke-width="0.0765957" stroke-miterlimit="10"/>
<path d="M80.8591 35.9083L79.6971 35.9163L79.0525 36.1789L78.5351 37.1896H78.3282L78.2327 35.8446L76.5455 36.1152L76.4393 35.8259L76.0467 35.8789L75.8238 36.4307L75.3675 37.1523H75.1605L75.0543 37.8738L74.4655 38.0276V38.5794L74.1418 38.7651L74.094 39.1312V39.2266L73.9985 39.736L74.094 40.0543L74.6033 40.424L75.3117 41.1254H75.5027L75.8768 40.424H76.1473L76.2985 40.6751L76.5453 40.424H77.2457L77.4368 39.5609L78.3123 39.0197V38.391L78.4635 38.3193L79.0126 38.5661L79.1798 38.4784L80.0154 37.4119L80.0712 37.0299L80.2702 36.9821C80.2702 36.9821 80.9148 36.2498 80.9387 36.2498C80.9448 36.2498 80.977 36.2524 81.0213 36.2562L80.9865 36.0906L80.8591 35.9083Z" stroke="white" stroke-width="0.0765957" stroke-miterlimit="10"/>
<path d="M86.0261 37.5984L86.2108 37.3014L85.9348 37.089L86.0515 36.9087L85.9773 36.6221L85.5316 36.2295L85.4786 35.6565L85.1178 35.285L84.8949 34.9773L84.7357 34.6272L84.5871 34.5847L84.3325 34.8288L84.3301 34.8291L85.2716 37.5984H86.0261Z" stroke="white" stroke-width="0.0765957" stroke-miterlimit="10"/>
<path d="M85.2747 37.5982L84.3332 34.829L78.2339 35.8446L78.3293 37.1897H78.5363L79.0536 36.1789L79.6982 35.9163L80.8602 35.9084L80.9875 36.0914L81.0223 36.257C81.1516 36.2684 81.3855 36.2904 81.3855 36.2904L81.664 36.8476L82.261 37.0466L82.3963 37.2456L82.4122 37.4525C82.4122 37.4525 82.269 37.7549 82.253 37.8187C82.2371 37.8824 82.4122 38.1914 82.4122 38.1914C82.4122 38.1914 82.9215 38.3201 82.9454 38.3201C82.9693 38.3201 83.3911 38.3997 83.3911 38.3997L83.8845 38.6491L84.1604 38.7234L84.2293 38.5218L84.0807 38.3256L83.773 37.7473L83.72 37.5881L83.7837 37.1955L83.72 36.8347L83.8578 36.7286L83.8473 36.6224L83.6457 36.4951L83.6032 36.4314L83.5714 36.1873L84.1338 35.5931L84.1762 35.6885L84.0807 35.9644C84.0807 35.9644 83.9853 36.0812 84.0064 36.166C84.0277 36.2509 84.1869 36.3995 84.1869 36.3995L84.2612 36.8133L84.2401 37.0149L84.049 37.1422L84.1128 37.3543L84.2401 37.3862L84.4522 37.5984L84.3568 37.7788L84.5054 38.2882L84.6008 38.3625L84.7389 38.1503L85.0253 38.1822L85.0891 38.5642L85.1421 38.8614H85.3012L85.6833 38.6067L85.7894 38.2141L85.9699 38.1079V37.694L86.0293 37.5985H85.2747V37.5982Z" stroke="white" stroke-width="0.0765957" stroke-miterlimit="10"/>
<path d="M85.1214 33.7792V33.376L84.5802 32.9515V31.9965L84.8773 31.7101C84.8773 31.7101 84.8654 31.4939 84.8527 31.247L84.7873 31.222L84.1028 30.9037V30.6491L83.5138 30.2194L76.9399 31.461L76.8227 31.08L76.7807 31.1267L75.8784 31.6803L76.4518 35.8275L76.558 36.1168L78.2452 35.8462L84.3468 34.8301L84.5803 34.6065V34.4375L85.1214 33.7792Z" stroke="white" stroke-width="0.0765957" stroke-miterlimit="10"/>
<path d="M86.5146 31.1732L86.3845 30.2182L86.2253 29.5443V27.8676L85.8751 26.3988L85.2863 25.8514V24.7266C85.2863 24.7266 84.9491 24.1362 84.6044 23.5026L82.3839 24.0897L81.0893 26.3288L81.2485 26.4242L81.4395 26.4348L81.3865 26.7107L81.5775 27.1882C81.5775 27.1882 81.5986 27.2625 81.5775 27.2944C81.5562 27.3262 81.5032 27.4748 81.5032 27.4748L80.6968 28.0903L80.007 28.2389L79.4339 28.1965L79.0943 28.1435L77.5662 28.6634L77.5873 29.0774L77.9905 29.4381L77.98 29.7883L76.8228 31.0786L76.9399 31.4596L83.5138 30.218L84.1029 30.6477V30.9023L84.7873 31.2207L86.0404 31.6982V32.2694L86.0977 32.2605L86.3099 32.6001L86.7238 32.5471L87.1059 32.4198C87.1059 32.4198 87.2226 32.1439 87.2545 32.1334C87.2863 32.1228 87.9654 31.8893 87.9654 31.8893L88.931 31.2632L89.3236 30.9661L89.2282 30.8706L88.8356 30.9449L88.4218 31.2421L88.3264 31.2845L87.9443 31.38L87.5622 31.5286L87.212 31.8893L86.777 32.0485L86.5541 32.0272L86.2993 31.9635V31.8043L86.4485 31.732L86.3629 31.5788L86.5146 31.1732Z" stroke="white" stroke-width="0.0765957" stroke-miterlimit="10"/>
<path d="M86.2192 29.4967V29.5438L86.3784 30.2177L86.5083 31.1727L86.3571 31.5786L86.4428 31.7317L86.6436 31.6342L87.6093 30.8703L89.1885 30.1596L88.833 28.7737L86.2192 29.4967Z" stroke="white" stroke-width="0.0765957" stroke-miterlimit="10"/>
<path d="M90.1976 29.1198H89.8633L89.3713 28.6263L88.8374 28.7742L89.193 30.1601L89.5239 30.0112L89.6936 29.4805L89.9376 29.7247L90.2135 29.6823L90.3353 29.3473L90.1976 29.1198Z" stroke="white" stroke-width="0.0765957" stroke-miterlimit="10"/>
<path d="M89.2541 27.1936L86.2192 27.9072V29.4971L89.3669 28.6262L89.8589 29.1197H90.1932L90.3309 29.3472L90.3364 29.3318L90.5593 29.0559L90.9201 29.3213L91.6099 28.8119H91.8221L91.8964 28.6846L91.8645 28.3557L91.8115 28.1647L91.4932 27.8569C91.4932 27.8569 91.3764 27.7402 91.3446 27.7402C91.3127 27.7402 91.2384 27.772 91.1854 27.8356C91.1324 27.8993 91.1111 27.9524 91.1111 27.9524L91.2808 28.0054H91.4081L91.6522 28.2494L91.6946 28.4723L91.3444 28.7163L91.1534 28.8225L90.7926 28.642C90.7926 28.642 90.7077 28.4086 90.7077 28.345C90.7077 28.2814 90.6548 28.0161 90.6548 28.0161L90.3683 27.9099L89.8059 27.9736L89.8378 27.7402L90.188 27.3794L90.2517 27.0186H90.0607L89.9545 26.7003H89.477L89.2541 27.1936Z" stroke="white" stroke-width="0.0765957" stroke-miterlimit="10"/>
<path d="M93.3854 20.3445L92.5153 20.2491L91.5071 17.4322L90.8173 17.3266L90.1701 17.0125H90.0109L89.8199 17.3266H89.3742L89.1195 17.1186L88.9603 17.2353L88.3342 19.623L88.6738 20.1854L88.6844 20.5567L88.5571 20.8113L88.5784 20.9599L88.5254 21.1721L88.4087 21.2994L88.3132 21.6283L88.3662 21.989L88.0146 22.1078C88.5827 23.6199 89.735 26.5096 89.735 26.5096L89.936 26.5505L90.2019 26.255V25.8199L90.4672 25.6926L90.5521 25.6077L90.5308 25.3424L90.6476 24.9816L90.8386 24.9922L90.5414 24.7057C90.5414 24.7057 90.4671 24.7057 90.5414 24.6527C90.6157 24.5997 90.8067 24.5466 90.8067 24.5466L90.987 24.6527C90.987 24.6527 91.1781 24.8649 91.2099 24.8543C91.2418 24.8438 91.2524 24.589 91.2524 24.589L91.0932 24.4617L91.1356 24.2388L91.1993 23.9629C91.1993 23.9629 91.5177 23.8675 91.5495 23.9416C91.5814 24.0159 91.6238 24.1221 91.6238 24.1221L91.7511 24.1008L91.6768 22.6364L91.8997 22.8699L91.9953 22.9344L92.1121 22.8169C92.1121 22.8169 92.2288 22.7107 92.3031 22.7214C92.3774 22.732 92.5047 22.87 92.5047 22.87L92.6744 22.9345L92.7169 22.5836C92.7169 22.5836 92.8866 22.6366 92.8973 22.6366C92.9079 22.6366 92.9928 22.7639 92.9928 22.7639L93.1095 22.5834L93.4065 22.4985V22.3394L93.2049 22.1696L93.3428 22.1166L93.4065 22.0423L93.693 21.9256L93.9795 21.968L94.0962 21.7559L94.1386 21.5789L93.3854 20.3445Z" stroke="white" stroke-width="0.0765957" stroke-miterlimit="10"/>
<path d="M87.1877 26.1164L87.3574 24.3549L87.6439 24.0895L87.7067 23.6013L87.5166 23.4316V22.7312L84.6011 23.5022C84.9458 24.1357 85.2829 24.7262 85.2829 24.7262V25.8511L85.8718 26.3985L86.222 27.8673V27.9069L87.3784 27.635L87.4154 26.8167L87.1877 26.1164Z" stroke="white" stroke-width="0.0765957" stroke-miterlimit="10"/>
<path d="M89.9092 26.5737L89.9298 26.5509L89.7288 26.51C89.7288 26.51 88.5765 23.6204 88.0084 22.1082L87.5748 22.2547L87.511 22.7322V23.4326L87.7011 23.6023L87.6383 24.0905L87.3519 24.3558L87.1821 26.1174L87.4098 26.8178L87.3729 27.6361L89.2514 27.1945L89.4743 26.701H89.9518L89.9092 26.5737Z" stroke="white" stroke-width="0.0765957" stroke-miterlimit="10"/>
<path d="M85.9414 32.771C85.8884 32.771 85.7609 32.6543 85.7609 32.6224C85.7609 32.5906 85.8246 32.3041 85.8246 32.3041L86.0432 32.2705V31.6993L84.8555 31.2468C84.8682 31.4939 84.8802 31.7099 84.8802 31.7099L84.583 31.9963V32.9513L85.1242 33.3758V33.779L84.583 34.437V34.6059L84.6041 34.5856L84.7527 34.628L84.9119 34.9782H85.1772L85.3577 35.1374L85.6973 35.5087L85.8141 35.4238L85.8671 35.0525L86.1535 34.437L86.3127 33.9595V33.2167V32.824C86.3127 32.824 85.9945 32.771 85.9414 32.771Z" stroke="white" stroke-width="0.0765957" stroke-miterlimit="10"/>
<path d="M21.8214 66.0417L22.3786 58.1307L19.8955 57.356L18.1658 55.966L16.5847 56.104L15.9799 56.3586L15.3327 56.9104L14.1867 57.0696V57.2925L14.5156 57.8231L14.611 58.5765L14.9612 59.054L15.0355 59.5315L14.9082 59.6269L14.3776 59.5421L14.3138 58.7781L12.6266 59.0753V59.2558L12.8706 59.4149L12.9979 60.3381L13.8362 60.8474C13.8362 60.8474 14.5896 60.5291 14.5896 60.561C14.5896 60.5928 14.5047 61.8556 14.5047 61.8556L13.3481 62.0466L13.1571 62.5984L13.0192 62.609L12.5628 61.9723L11.6609 62.4817L11.9792 63.5534L11.7033 64.0628L11.6609 64.3599L12.478 64.6464L12.2764 65.4954L12.2445 65.7076L13.0509 65.6227L13.4435 66.3337H13.8575L14.3244 66.0789L14.6003 66.0683L13.5391 67.1825L11.6609 67.9572L11.3107 68.1907L11.1196 68.3287V68.4984L11.5971 68.5514L14.2075 67.9148L15.9796 66.7793L16.1707 65.8454L16.871 65.1663L17.2318 65.1876L17.3273 65.4105L16.9665 66.3655L16.9559 66.6414L17.8155 66.355L18.6537 66.1321L18.9615 65.1452L19.1525 65.2089L20.3091 66.2277L21.6675 66.546L23.0788 67.4161L23.4609 68.1271L24.2143 67.9891L24.2673 67.8299L24.3627 67.501L25.997 69.4854L26.4958 70.4723L27.0264 70.5996L27.0794 70.4934L26.188 68.838L24.3522 66.9492L24.1187 66.9703L23.4926 67.2675L23.3653 67.1295L22.5376 66.3124L21.8904 66.1956L21.8214 66.0417Z" fill="#D9D9D9"/>
<path d="M10.6001 59.5634C10.6001 59.5634 10.3057 59.9295 10.3057 59.9534C10.3057 59.9773 10.4529 60.2558 10.4529 60.2558H10.7354L11.0378 60.8369L11.4039 60.9166L11.2925 60.455L11.128 60.065L10.8547 59.9695L10.6876 59.6671L10.6001 59.5634Z" fill="#D9D9D9"/>
<path d="M8.7929 61.6321L8.62577 61.9505L8.58594 62.1813L8.72917 62.3564C8.72917 62.3564 9.06344 62.2371 9.0714 62.1813C9.07937 62.1256 8.98393 61.8869 8.96003 61.9068C8.93613 61.9267 8.85663 61.6323 8.85663 61.6323H8.7929V61.6321Z" fill="#D9D9D9"/>
<path d="M10.8145 63.4796C10.7827 63.4955 10.7827 63.4875 10.7747 63.5433C10.7667 63.599 10.7986 63.8059 10.8145 63.8298C10.8305 63.8537 11.1275 63.9411 11.1275 63.9411L11.4034 63.8059L11.3078 63.4796L10.9576 63.4238L10.8145 63.4796Z" fill="#D9D9D9"/>
<path d="M8.28582 64.7293L7.75257 64.9443C7.75257 64.9443 7.71274 65.0636 7.75257 65.0955C7.7924 65.1273 8.01039 65.2706 8.01039 65.2706L8.42109 65.0636L8.57229 64.8646L8.28582 64.7293Z" fill="#D9D9D9"/>
<path d="M8.16994 65.7158L8.07129 65.9148L8.16994 66.0183L8.58862 66.0263V65.7636L8.16994 65.7158Z" fill="#D9D9D9"/>
<path d="M10.9074 68.4575L10.7761 68.6167L10.5492 68.4734L10.5215 68.2943L10.7144 68.2029L10.8596 68.2505L10.9074 68.4575Z" fill="#D9D9D9"/>
<path d="M10.335 68.2508H9.86944L9.85749 68.4099L9.81766 68.4298L9.49136 68.4657L9.4834 68.6448L9.77385 68.7721L9.82563 68.589C9.82563 68.589 9.9609 68.5532 9.97285 68.5611C9.9848 68.5691 10.3031 68.7004 10.3031 68.7004L10.3748 68.5691L10.335 68.2508Z" fill="#D9D9D9"/>
<path d="M9.12933 68.597L9.18494 68.7402L8.97415 68.7721L8.71541 68.7442L8.53235 68.8159L8.36123 68.9949L8.07476 69.2059L7.89967 69.0308L7.82812 69.0188V68.9013L8.03493 68.8318L8.11459 68.8039L8.25783 68.5374H8.47674L8.61997 68.6368L8.78711 68.5374L8.97813 68.5115L9.12933 68.597Z" fill="#D9D9D9"/>
<path d="M7.73373 68.7715C7.73373 68.7715 7.40345 68.7675 7.39946 68.7715C7.39548 68.7754 7.20843 68.8948 7.20843 68.8948C7.20843 68.8948 6.94985 68.9585 6.93392 68.9864C6.91798 69.0143 6.96578 69.1814 6.96578 69.1814L7.17672 69.2212C7.17672 69.2212 7.4036 69.1099 7.39962 69.074C7.39563 69.0382 7.51497 68.9507 7.51497 68.9507C7.51497 68.9507 7.69007 68.9746 7.69803 68.9626C7.70585 68.9505 7.73373 68.7715 7.73373 68.7715Z" fill="#D9D9D9"/>
<path d="M6.50396 69.1262L6.25732 69.1063L6.27724 69.2455L6.53981 69.3093C6.53981 69.3093 6.59955 69.2734 6.60354 69.2218C6.60752 69.17 6.50396 69.1262 6.50396 69.1262Z" fill="#D9D9D9"/>
<path d="M5.95678 68.9275C5.95678 68.9275 5.8016 68.8837 5.79363 68.8957C5.78567 68.9076 5.73389 69.0349 5.73389 69.0349L5.87513 69.1702L6.02832 69.1782C6.02832 69.1782 6.06815 69.0985 6.0801 69.0548C6.09205 69.0112 5.95678 68.9275 5.95678 68.9275Z" fill="#D9D9D9"/>
<path d="M4.85314 68.6797C4.85314 68.6797 4.75372 68.7236 4.76168 68.7712C4.76965 68.819 4.89297 68.9383 4.89297 68.9383L5.09197 68.9702L5.14773 68.7951L5.07603 68.6797H4.85314Z" fill="#D9D9D9"/>
<path d="M4.40502 68.6328L4.25382 68.3821L3.73649 68.3105H3.51758L3.56936 68.5114L3.70463 68.6089L4.11043 68.6129L4.30942 68.971H4.54825C4.54825 68.971 4.56418 68.8278 4.5602 68.8039C4.55622 68.78 4.49647 68.6806 4.49647 68.6806L4.40502 68.6328Z" fill="#D9D9D9"/>
<path d="M3.20953 68.0837C3.20953 68.0837 2.92704 67.9843 2.90713 67.9962C2.88721 68.0082 2.75195 68.1076 2.75195 68.1076L2.45353 67.9165L2.05554 67.7773C2.05554 67.7773 2.02766 67.6937 2.03164 67.6739C2.03562 67.654 2.19479 67.5028 2.20674 67.5028C2.21869 67.5028 2.75991 67.7336 2.75991 67.7336L2.83544 67.8689L3.11394 67.841L3.20953 67.9247V68.0837Z" fill="#D9D9D9"/>
<path d="M1.39243 66.9489C1.39243 66.9489 1.21733 66.8573 1.21335 66.8296C1.20937 66.8017 1.18945 66.5788 1.18945 66.5788L1.35658 66.5549L1.48389 66.734L1.49584 66.7938L1.39243 66.9489Z" fill="#D9D9D9"/>
<path d="M0.913233 66.9889L0.662459 66.9331L0.535156 66.6626L0.630595 66.4357L0.773981 66.4516L0.861454 66.6865L0.960875 66.7939L0.913233 66.9889Z" fill="#D9D9D9"/>
<path d="M0.538275 66.0896L0.108573 65.9623L0.0488281 65.7513L0.538275 65.6877L0.729305 65.9503L0.538275 66.0896Z" fill="#D9D9D9"/>
<path d="M14.4267 68.833L14.2251 68.9392C14.2251 68.9392 14.1349 69.093 14.1508 69.1196C14.1667 69.1461 14.3789 69.2364 14.3789 69.2364L14.6548 69.125L14.5434 68.8013L14.4267 68.833Z" fill="#D9D9D9"/>
<path d="M14.7563 68.4093C14.7563 68.4093 14.7669 68.6069 14.8094 68.6162C14.8518 68.6256 15.0799 68.6521 15.0799 68.6521L15.1861 68.4664L15.1701 68.3443H14.8518L14.7563 68.4093Z" fill="#D9D9D9"/>
<path d="M15.6458 67.654L15.2161 67.7229C15.2161 67.7229 15.0464 67.8502 15.0464 67.8821C15.0464 67.914 15.3806 68.3437 15.3806 68.3437L15.752 68.1048L16.3091 67.8927L16.4364 67.7335L16.0862 67.5425L15.6723 67.4735L15.6245 67.5425L15.6458 67.654Z" fill="#D9D9D9"/>
<path d="M16.2966 67.0657L16.0845 67.2462L16.1323 67.3842C16.1323 67.3842 16.4877 67.5063 16.5249 67.4744C16.562 67.4426 16.6522 67.225 16.6522 67.225L16.3976 67.0659H16.2966V67.0657Z" fill="#D9D9D9"/>
<path d="M24.2175 68.2753C24.2175 68.2753 23.9947 68.2966 23.9787 68.3072C23.9628 68.3178 23.8726 68.4769 23.8726 68.4769L24.0688 68.7901C24.0688 68.7901 24.3553 68.9333 24.3819 68.8855C24.4084 68.8377 24.4349 68.599 24.4349 68.599V68.4134L24.2175 68.2753Z" fill="#D9D9D9"/>
<path d="M24.7755 68.3981L24.6958 68.7642L25.0567 68.9658L25.0779 68.7166L24.9558 68.4672L24.7755 68.3981Z" fill="#D9D9D9"/>
<path d="M24.4111 69.0187C24.4111 69.0187 24.2838 69.077 24.2678 69.0983C24.2519 69.1196 24.2095 69.3318 24.2095 69.3531C24.2095 69.3742 24.4111 69.6396 24.4111 69.6396L24.6975 69.8995L24.8886 69.8571L24.8037 69.4061L24.6975 69.1886L24.4111 69.0187Z" fill="#D9D9D9"/>
<path d="M25.0835 69.1566C25.0835 69.1566 24.9668 69.3423 24.9668 69.3741C24.9668 69.406 25.0305 69.5916 25.0305 69.5916C25.0305 69.5916 25.1791 69.5916 25.211 69.5811C25.2428 69.5705 25.3914 69.459 25.3914 69.459L25.3171 69.1831L25.0835 69.1566Z" fill="#D9D9D9"/>
<path d="M25.5728 69.5225C25.5728 69.5225 25.525 69.5543 25.5198 69.5914C25.5144 69.6285 25.4827 69.8195 25.4827 69.8195L25.3501 69.8992L25.313 70.244L25.6632 70.7534L25.9072 71.0239C25.9072 71.0239 26.1725 71.0823 26.1778 71.0239C26.1831 70.9655 26.1248 70.6683 26.1248 70.6683L25.7216 70.2386C25.7216 70.2386 25.6473 69.9787 25.6738 69.9522C25.7003 69.9257 25.817 69.9097 25.8276 69.8619C25.8381 69.8141 25.7454 69.5914 25.7454 69.5914L25.5728 69.5225Z" fill="#D9D9D9"/>
<path d="M21.8214 66.0417L22.3786 58.1307L19.8955 57.356L18.1658 55.966L16.5847 56.104L15.9799 56.3586L15.3327 56.9104L14.1867 57.0696V57.2925L14.5156 57.8231L14.611 58.5765L14.9612 59.054L15.0355 59.5315L14.9082 59.6269L14.3776 59.5421L14.3138 58.7781L12.6266 59.0753V59.2558L12.8706 59.4149L12.9979 60.3381L13.8362 60.8474C13.8362 60.8474 14.5896 60.5291 14.5896 60.561C14.5896 60.5928 14.5047 61.8556 14.5047 61.8556L13.3481 62.0466L13.1571 62.5984L13.0192 62.609L12.5628 61.9723L11.6609 62.4817L11.9792 63.5534L11.7033 64.0628L11.6609 64.3599L12.478 64.6464L12.2764 65.4954L12.2445 65.7076L13.0509 65.6227L13.4435 66.3337H13.8575L14.3244 66.0789L14.6003 66.0683L13.5391 67.1825L11.6609 67.9572L11.3107 68.1907L11.1196 68.3287V68.4984L11.5971 68.5514L14.2075 67.9148L15.9796 66.7793L16.1707 65.8454L16.871 65.1663L17.2318 65.1876L17.3273 65.4105L16.9665 66.3655L16.9559 66.6414L17.8155 66.355L18.6537 66.1321L18.9615 65.1452L19.1525 65.2089L20.3091 66.2277L21.6675 66.546L23.0788 67.4161L23.4609 68.1271L24.2143 67.9891L24.2673 67.8299L24.3627 67.501L25.997 69.4854L26.4958 70.4723L27.0264 70.5996L27.0794 70.4934L26.188 68.838L24.3522 66.9492L24.1187 66.9703L23.4926 67.2675L23.3653 67.1295L22.5376 66.3124L21.8904 66.1956L21.8214 66.0417Z" stroke="white" stroke-width="0.0765957" stroke-miterlimit="10"/>
<path d="M10.6001 59.5634C10.6001 59.5634 10.3057 59.9295 10.3057 59.9534C10.3057 59.9773 10.4529 60.2558 10.4529 60.2558H10.7354L11.0378 60.8369L11.4039 60.9166L11.2925 60.455L11.128 60.065L10.8547 59.9695L10.6876 59.6671L10.6001 59.5634Z" stroke="white" stroke-width="0.0765957" stroke-miterlimit="10"/>
<path d="M8.7929 61.6321L8.62577 61.9505L8.58594 62.1813L8.72917 62.3564C8.72917 62.3564 9.06344 62.2371 9.0714 62.1813C9.07937 62.1256 8.98393 61.8869 8.96003 61.9068C8.93613 61.9267 8.85663 61.6323 8.85663 61.6323H8.7929V61.6321Z" stroke="white" stroke-width="0.0765957" stroke-miterlimit="10"/>
<path d="M10.8145 63.4796C10.7827 63.4955 10.7827 63.4875 10.7747 63.5433C10.7667 63.599 10.7986 63.8059 10.8145 63.8298C10.8305 63.8537 11.1275 63.9411 11.1275 63.9411L11.4034 63.8059L11.3078 63.4796L10.9576 63.4238L10.8145 63.4796Z" stroke="white" stroke-width="0.0765957" stroke-miterlimit="10"/>
<path d="M8.28582 64.7293L7.75257 64.9443C7.75257 64.9443 7.71274 65.0636 7.75257 65.0955C7.7924 65.1273 8.01039 65.2706 8.01039 65.2706L8.42109 65.0636L8.57229 64.8646L8.28582 64.7293Z" stroke="white" stroke-width="0.0765957" stroke-miterlimit="10"/>
<path d="M8.16994 65.7158L8.07129 65.9148L8.16994 66.0183L8.58862 66.0263V65.7636L8.16994 65.7158Z" stroke="white" stroke-width="0.0765957" stroke-miterlimit="10"/>
<path d="M10.9074 68.4575L10.7761 68.6167L10.5492 68.4734L10.5215 68.2943L10.7144 68.2029L10.8596 68.2505L10.9074 68.4575Z" stroke="white" stroke-width="0.0765957" stroke-miterlimit="10"/>
<path d="M10.335 68.2508H9.86944L9.85749 68.4099L9.81766 68.4298L9.49136 68.4657L9.4834 68.6448L9.77385 68.7721L9.82563 68.589C9.82563 68.589 9.9609 68.5532 9.97285 68.5611C9.9848 68.5691 10.3031 68.7004 10.3031 68.7004L10.3748 68.5691L10.335 68.2508Z" stroke="white" stroke-width="0.0765957" stroke-miterlimit="10"/>
<path d="M9.12933 68.597L9.18494 68.7402L8.97415 68.7721L8.71541 68.7442L8.53235 68.8159L8.36123 68.9949L8.07476 69.2059L7.89967 69.0308L7.82812 69.0188V68.9013L8.03493 68.8318L8.11459 68.8039L8.25783 68.5374H8.47674L8.61997 68.6368L8.78711 68.5374L8.97813 68.5115L9.12933 68.597Z" stroke="white" stroke-width="0.0765957" stroke-miterlimit="10"/>
<path d="M7.73373 68.7715C7.73373 68.7715 7.40345 68.7675 7.39946 68.7715C7.39548 68.7754 7.20843 68.8948 7.20843 68.8948C7.20843 68.8948 6.94985 68.9585 6.93392 68.9864C6.91798 69.0143 6.96578 69.1814 6.96578 69.1814L7.17672 69.2212C7.17672 69.2212 7.4036 69.1099 7.39962 69.074C7.39563 69.0382 7.51497 68.9507 7.51497 68.9507C7.51497 68.9507 7.69007 68.9746 7.69803 68.9626C7.70585 68.9505 7.73373 68.7715 7.73373 68.7715Z" stroke="white" stroke-width="0.0765957" stroke-miterlimit="10"/>
<path d="M6.50396 69.1262L6.25732 69.1063L6.27724 69.2455L6.53981 69.3093C6.53981 69.3093 6.59955 69.2734 6.60354 69.2218C6.60752 69.17 6.50396 69.1262 6.50396 69.1262Z" stroke="white" stroke-width="0.0765957" stroke-miterlimit="10"/>
<path d="M5.95678 68.9275C5.95678 68.9275 5.8016 68.8837 5.79363 68.8957C5.78567 68.9076 5.73389 69.0349 5.73389 69.0349L5.87513 69.1702L6.02832 69.1782C6.02832 69.1782 6.06815 69.0985 6.0801 69.0548C6.09205 69.0112 5.95678 68.9275 5.95678 68.9275Z" stroke="white" stroke-width="0.0765957" stroke-miterlimit="10"/>
<path d="M4.85314 68.6797C4.85314 68.6797 4.75372 68.7236 4.76168 68.7712C4.76965 68.819 4.89297 68.9383 4.89297 68.9383L5.09197 68.9702L5.14773 68.7951L5.07603 68.6797H4.85314Z" stroke="white" stroke-width="0.0765957" stroke-miterlimit="10"/>
<path d="M4.40502 68.6328L4.25382 68.3821L3.73649 68.3105H3.51758L3.56936 68.5114L3.70463 68.6089L4.11043 68.6129L4.30942 68.971H4.54825C4.54825 68.971 4.56418 68.8278 4.5602 68.8039C4.55622 68.78 4.49647 68.6806 4.49647 68.6806L4.40502 68.6328Z" stroke="white" stroke-width="0.0765957" stroke-miterlimit="10"/>
<path d="M3.20953 68.0837C3.20953 68.0837 2.92704 67.9843 2.90713 67.9962C2.88721 68.0082 2.75195 68.1076 2.75195 68.1076L2.45353 67.9165L2.05554 67.7773C2.05554 67.7773 2.02766 67.6937 2.03164 67.6739C2.03562 67.654 2.19479 67.5028 2.20674 67.5028C2.21869 67.5028 2.75991 67.7336 2.75991 67.7336L2.83544 67.8689L3.11394 67.841L3.20953 67.9247V68.0837Z" stroke="white" stroke-width="0.0765957" stroke-miterlimit="10"/>
<path d="M1.39243 66.9489C1.39243 66.9489 1.21733 66.8573 1.21335 66.8296C1.20937 66.8017 1.18945 66.5788 1.18945 66.5788L1.35658 66.5549L1.48389 66.734L1.49584 66.7938L1.39243 66.9489Z" stroke="white" stroke-width="0.0765957" stroke-miterlimit="10"/>
<path d="M0.913233 66.9889L0.662459 66.9331L0.535156 66.6626L0.630595 66.4357L0.773981 66.4516L0.861454 66.6865L0.960875 66.7939L0.913233 66.9889Z" stroke="white" stroke-width="0.0765957" stroke-miterlimit="10"/>
<path d="M0.538275 66.0896L0.108573 65.9623L0.0488281 65.7513L0.538275 65.6877L0.729305 65.9503L0.538275 66.0896Z" stroke="white" stroke-width="0.0765957" stroke-miterlimit="10"/>
<path d="M14.4267 68.833L14.2251 68.9392C14.2251 68.9392 14.1349 69.093 14.1508 69.1196C14.1667 69.1461 14.3789 69.2364 14.3789 69.2364L14.6548 69.125L14.5434 68.8013L14.4267 68.833Z" stroke="white" stroke-width="0.0765957" stroke-miterlimit="10"/>
<path d="M14.7563 68.4093C14.7563 68.4093 14.7669 68.6069 14.8094 68.6162C14.8518 68.6256 15.0799 68.6521 15.0799 68.6521L15.1861 68.4664L15.1701 68.3443H14.8518L14.7563 68.4093Z" stroke="white" stroke-width="0.0765957" stroke-miterlimit="10"/>
<path d="M15.6458 67.654L15.2161 67.7229C15.2161 67.7229 15.0464 67.8502 15.0464 67.8821C15.0464 67.914 15.3806 68.3437 15.3806 68.3437L15.752 68.1048L16.3091 67.8927L16.4364 67.7335L16.0862 67.5425L15.6723 67.4735L15.6245 67.5425L15.6458 67.654Z" stroke="white" stroke-width="0.0765957" stroke-miterlimit="10"/>
<path d="M16.2966 67.0657L16.0845 67.2462L16.1323 67.3842C16.1323 67.3842 16.4877 67.5063 16.5249 67.4744C16.562 67.4426 16.6522 67.225 16.6522 67.225L16.3976 67.0659H16.2966V67.0657Z" stroke="white" stroke-width="0.0765957" stroke-miterlimit="10"/>
<path d="M24.2175 68.2753C24.2175 68.2753 23.9947 68.2966 23.9787 68.3072C23.9628 68.3178 23.8726 68.4769 23.8726 68.4769L24.0688 68.7901C24.0688 68.7901 24.3553 68.9333 24.3819 68.8855C24.4084 68.8377 24.4349 68.599 24.4349 68.599V68.4134L24.2175 68.2753Z" stroke="white" stroke-width="0.0765957" stroke-miterlimit="10"/>
<path d="M24.7755 68.3981L24.6958 68.7642L25.0567 68.9658L25.0779 68.7166L24.9558 68.4672L24.7755 68.3981Z" stroke="white" stroke-width="0.0765957" stroke-miterlimit="10"/>
<path d="M24.4111 69.0187C24.4111 69.0187 24.2838 69.077 24.2678 69.0983C24.2519 69.1196 24.2095 69.3318 24.2095 69.3531C24.2095 69.3742 24.4111 69.6396 24.4111 69.6396L24.6975 69.8995L24.8886 69.8571L24.8037 69.4061L24.6975 69.1886L24.4111 69.0187Z" stroke="white" stroke-width="0.0765957" stroke-miterlimit="10"/>
<path d="M25.0835 69.1566C25.0835 69.1566 24.9668 69.3423 24.9668 69.3741C24.9668 69.406 25.0305 69.5916 25.0305 69.5916C25.0305 69.5916 25.1791 69.5916 25.211 69.5811C25.2428 69.5705 25.3914 69.459 25.3914 69.459L25.3171 69.1831L25.0835 69.1566Z" stroke="white" stroke-width="0.0765957" stroke-miterlimit="10"/>
<path d="M25.5728 69.5225C25.5728 69.5225 25.525 69.5543 25.5198 69.5914C25.5144 69.6285 25.4827 69.8195 25.4827 69.8195L25.3501 69.8992L25.313 70.244L25.6632 70.7534L25.9072 71.0239C25.9072 71.0239 26.1725 71.0823 26.1778 71.0239C26.1831 70.9655 26.1248 70.6683 26.1248 70.6683L25.7216 70.2386C25.7216 70.2386 25.6473 69.9787 25.6738 69.9522C25.7003 69.9257 25.817 69.9097 25.8276 69.8619C25.8381 69.8141 25.7454 69.5914 25.7454 69.5914L25.5728 69.5225Z" stroke="white" stroke-width="0.0765957" stroke-miterlimit="10"/>
<path d="M67.015 10.97C66.9832 10.97 66.6118 11.5855 66.6118 11.5855L66.8983 11.6811L67.206 11.3255L67.015 10.97Z" fill="#D9D9D9"/>
<path d="M67.9552 10.6929C67.9552 10.6929 67.658 10.884 67.6687 10.9688C67.6793 11.0537 67.9552 11.4569 67.9552 11.4569H68.5813L68.698 10.6929H67.9552Z" fill="#D9D9D9"/>
<path d="M71.0441 12.1236C71.0361 12.1475 71.3465 12.9353 71.3465 12.9353H71.6409L71.6967 12.6965L72.1503 12.983C72.1503 12.983 72.3732 12.9113 72.3812 12.8874C72.3891 12.8635 72.3812 12.5133 72.3812 12.5133L72.0469 12.3302L71.832 11.9482L71.3385 12.0834L71.0441 12.1236Z" fill="#D9D9D9"/>
<path d="M73.1492 13.1432L72.998 13.4933L74.1441 13.5968L74.2158 13.541L74.55 13.2227C74.55 13.2227 74.4624 13.1352 74.367 13.1432C74.2715 13.1511 74.0725 13.2227 74.0725 13.2227C74.0725 13.2227 73.8178 13.2784 73.7741 13.2625C73.7303 13.2466 73.1492 13.1432 73.1492 13.1432Z" fill="#D9D9D9"/>
<path d="M73.7646 13.7715L73.8403 14.1695C73.8403 14.1695 73.8961 14.2888 73.9517 14.2888C74.0075 14.2888 74.2222 14.249 74.2222 14.249C74.2222 14.249 74.27 14.0261 74.27 13.9784C74.27 13.9307 74.1029 13.7715 74.1029 13.7715H73.7646Z" fill="#D9D9D9"/>
<path d="M74.6596 13.5166C74.6357 13.5325 74.4287 13.7714 74.4287 13.7714C74.4287 13.7714 74.8584 13.9544 74.8823 13.9704C74.9062 13.9863 75.1132 14.2489 75.1132 14.2887C75.1132 14.3285 75.3996 14.5195 75.3996 14.5195H76.1716L76.2194 14.1694L75.8453 13.9863L75.3996 13.6998L75.2166 13.7317L74.8903 13.668L74.7231 13.4769L74.6596 13.5166Z" fill="#D9D9D9"/>
<path d="M74.4941 14.5827C74.4941 14.5827 74.526 14.7498 74.5499 14.7817C74.5738 14.8135 74.7569 14.8613 74.7569 14.8613L74.9877 14.7221L74.8126 14.4236L74.4941 14.5827Z" fill="#D9D9D9"/>
<path d="M76.5178 15.3793L76.4064 15.443L76.5178 16.1832L75.9526 16.4299V16.7721L76.2074 17.1621L76.3188 18.2127L76.462 18.2605L76.6132 18.5549L76.7963 18.6266L77.0271 18.4914L77.5843 17.8706C77.5843 17.8706 78.1494 17.7593 78.1652 17.7354C78.1811 17.7115 78.4357 17.4091 78.4357 17.4091L78.7461 17.3216L78.8257 17.0748C78.8257 17.0748 78.4198 16.8202 78.4118 16.7963C78.4039 16.7724 78.173 16.3586 78.173 16.3586L77.0985 15.7698L76.6369 15.3399L76.5178 15.3793Z" fill="#D9D9D9"/>
<path d="M67.015 10.97C66.9832 10.97 66.6118 11.5855 66.6118 11.5855L66.8983 11.6811L67.206 11.3255L67.015 10.97Z" stroke="white" stroke-width="0.0765957" stroke-miterlimit="10"/>
<path d="M67.9552 10.6929C67.9552 10.6929 67.658 10.884 67.6687 10.9688C67.6793 11.0537 67.9552 11.4569 67.9552 11.4569H68.5813L68.698 10.6929H67.9552Z" stroke="white" stroke-width="0.0765957" stroke-miterlimit="10"/>
<path d="M71.0441 12.1236C71.0361 12.1475 71.3465 12.9353 71.3465 12.9353H71.6409L71.6967 12.6965L72.1503 12.983C72.1503 12.983 72.3732 12.9113 72.3812 12.8874C72.3891 12.8635 72.3812 12.5133 72.3812 12.5133L72.0469 12.3302L71.832 11.9482L71.3385 12.0834L71.0441 12.1236Z" stroke="white" stroke-width="0.0765957" stroke-miterlimit="10"/>
<path d="M73.1492 13.1432L72.998 13.4933L74.1441 13.5968L74.2158 13.541L74.55 13.2227C74.55 13.2227 74.4624 13.1352 74.367 13.1432C74.2715 13.1511 74.0725 13.2227 74.0725 13.2227C74.0725 13.2227 73.8178 13.2784 73.7741 13.2625C73.7303 13.2466 73.1492 13.1432 73.1492 13.1432Z" stroke="white" stroke-width="0.0765957" stroke-miterlimit="10"/>
<path d="M73.7646 13.7715L73.8403 14.1695C73.8403 14.1695 73.8961 14.2888 73.9517 14.2888C74.0075 14.2888 74.2222 14.249 74.2222 14.249C74.2222 14.249 74.27 14.0261 74.27 13.9784C74.27 13.9307 74.1029 13.7715 74.1029 13.7715H73.7646Z" stroke="white" stroke-width="0.0765957" stroke-miterlimit="10"/>
<path d="M74.6596 13.5166C74.6357 13.5325 74.4287 13.7714 74.4287 13.7714C74.4287 13.7714 74.8584 13.9544 74.8823 13.9704C74.9062 13.9863 75.1132 14.2489 75.1132 14.2887C75.1132 14.3285 75.3996 14.5195 75.3996 14.5195H76.1716L76.2194 14.1694L75.8453 13.9863L75.3996 13.6998L75.2166 13.7317L74.8903 13.668L74.7231 13.4769L74.6596 13.5166Z" stroke="white" stroke-width="0.0765957" stroke-miterlimit="10"/>
<path d="M74.4941 14.5827C74.4941 14.5827 74.526 14.7498 74.5499 14.7817C74.5738 14.8135 74.7569 14.8613 74.7569 14.8613L74.9877 14.7221L74.8126 14.4236L74.4941 14.5827Z" stroke="white" stroke-width="0.0765957" stroke-miterlimit="10"/>
<path d="M76.5178 15.3793L76.4064 15.443L76.5178 16.1832L75.9526 16.4299V16.7721L76.2074 17.1621L76.3188 18.2127L76.462 18.2605L76.6132 18.5549L76.7963 18.6266L77.0271 18.4914L77.5843 17.8706C77.5843 17.8706 78.1494 17.7593 78.1652 17.7354C78.1811 17.7115 78.4357 17.4091 78.4357 17.4091L78.7461 17.3216L78.8257 17.0748C78.8257 17.0748 78.4198 16.8202 78.4118 16.7963C78.4039 16.7724 78.173 16.3586 78.173 16.3586L77.0985 15.7698L76.6369 15.3399L76.5178 15.3793Z" stroke="white" stroke-width="0.0765957" stroke-miterlimit="10"/>
<rect x="190.415" y="38.2979" width="6.27595" height="6.27595" fill="#787777"/>
<rect x="201.186" y="38.2979" width="6.27595" height="6.27595" fill="#787777"/>
<rect x="190.415" y="50.8492" width="6.27595" height="6.27595" fill="#BEBBBB"/>
<rect x="201.186" y="50.8492" width="6.27595" height="6.27595" fill="#BEBBBB"/>
<rect x="190.415" y="63.4016" width="6.27595" height="6.27595" fill="#D9D9D9"/>
<rect x="201.186" y="63.4016" width="6.27595" height="6.27595" fill="#D9D9D9"/>
</svg>
