<svg width="650" height="269" viewBox="0 0 650 269" fill="none" xmlns="http://www.w3.org/2000/svg">
<path d="M649.378 134.023L477.956 134.023" stroke="white" stroke-width="1.25239"/>
<path d="M0 134.023L177.333 134.023" stroke="white" stroke-width="1.25239"/>
<path d="M133.422 134.023L254.178 134.023" stroke="white" stroke-width="1.25239"/>
<path d="M579.289 134.023C579.289 207.71 533.921 267.445 477.956 267.445" stroke="white" stroke-width="1.20088"/>
<path d="M152.845 134.023C152.845 207.71 198.213 267.445 254.178 267.445" stroke="white" stroke-width="1.20088"/>
<path d="M579.289 134.023C579.289 183.458 533.921 223.534 477.956 223.534" stroke="white" stroke-width="1.20088"/>
<path d="M152.845 134.023C152.845 183.458 198.213 223.534 254.178 223.534" stroke="white" stroke-width="1.20088"/>
<path d="M579.289 134.023C579.289 158.274 533.921 177.934 477.956 177.934" stroke="white" stroke-width="1.20088"/>
<path d="M152.845 134.023C152.845 158.274 198.213 177.934 254.178 177.934" stroke="white" stroke-width="1.20088"/>
<path d="M579.289 134.023C579.289 60.3356 533.921 0.600464 477.956 0.600465" stroke="white" stroke-width="1.20088"/>
<path d="M152.845 134.023C152.845 60.3356 198.213 0.600464 254.178 0.600465" stroke="white" stroke-width="1.20088"/>
<path d="M579.289 134.023C579.289 84.5871 533.921 44.5116 477.956 44.5116" stroke="white" stroke-width="1.20088"/>
<path d="M152.845 134.023C152.845 84.5871 198.213 44.5116 254.178 44.5116" stroke="white" stroke-width="1.20088"/>
<path d="M579.289 134.023C579.289 109.771 533.921 90.1116 477.956 90.1116" stroke="white" stroke-width="1.20088"/>
<path d="M152.845 134.023C152.845 109.771 198.213 90.1116 254.178 90.1116" stroke="white" stroke-width="1.20088"/>
</svg>
