<svg width="32" height="32" viewBox="0 0 32 32" fill="none" xmlns="http://www.w3.org/2000/svg">
<path fill-rule="evenodd" clip-rule="evenodd" d="M0 0.742658C0 0.3325 0.332498 0 0.742657 0H30.449C30.8591 0 31.1917 0.332498 31.1917 0.742657V30.449C31.1917 30.8591 30.8591 31.1917 30.449 31.1917H29.9043H1.2875H0.742658C0.3325 31.1917 0 30.8591 0 30.449V0.742658ZM20.6518 28.1519C20.8463 28.2953 20.7472 28.6161 20.5056 28.6161H10.6862C10.4445 28.6161 10.3455 28.2953 10.5399 28.1519C12.5884 26.6398 14.2537 24.6384 15.3632 22.3202C15.455 22.1281 15.7366 22.1281 15.8285 22.3202C16.938 24.6384 18.6034 26.6398 20.6518 28.1519ZM13.537 16.8835C13.7223 16.8835 13.8373 17.081 13.7309 17.2329C13.1894 18.0068 12.2477 18.7931 10.8287 19.5026C8.78068 20.5265 5.99209 21.2415 2.8306 21.4191C2.69177 21.4268 2.57545 21.3158 2.57545 21.1768V17.1272C2.57545 16.9926 2.68456 16.8835 2.81914 16.8835H13.537ZM2.80889 23.9993C2.67852 24.0059 2.57545 24.1131 2.57545 24.2436V28.2845C2.57545 28.4285 2.7 28.5412 2.84298 28.5243C7.06219 28.0219 10.662 25.5022 12.6508 21.957C12.7697 21.7451 12.5291 21.5196 12.3148 21.6336C12.2044 21.6925 12.0929 21.7499 11.9805 21.806C9.52718 23.0328 6.32377 23.8216 2.80889 23.9993ZM28.3828 23.9993C28.5132 24.0059 28.6161 24.1131 28.6161 24.2436V28.2845C28.6161 28.4285 28.4916 28.5412 28.3487 28.5243C24.1297 28.0219 20.5297 25.5023 18.5409 21.9569C18.4219 21.7451 18.6626 21.5196 18.8769 21.6336C18.9873 21.6925 19.0988 21.7499 19.2111 21.806C21.6646 23.0328 24.8678 23.8216 28.3828 23.9993ZM28.361 21.4191C28.4999 21.4268 28.6161 21.3158 28.6161 21.1768V17.1272C28.6161 16.9926 28.5071 16.8835 28.3724 16.8835H17.6547C17.4694 16.8835 17.3545 17.081 17.4607 17.2329C18.0024 18.0068 18.944 18.7931 20.3629 19.5026C22.411 20.5265 25.1996 21.2414 28.361 21.4191ZM2.8306 9.77257C2.69177 9.76477 2.57545 9.87574 2.57545 10.0148V14.0644C2.57545 14.199 2.68456 14.3081 2.81914 14.3081H13.537C13.7223 14.3081 13.8372 14.1106 13.7309 13.9587C13.1892 13.1848 12.2476 12.3986 10.8287 11.6891C8.78068 10.6651 5.99209 9.95017 2.8306 9.77257ZM2.57545 6.94796C2.57545 7.07849 2.67852 7.18575 2.80889 7.19234C6.32377 7.37011 9.52718 8.15885 11.9805 9.38555C12.0929 9.44173 12.2044 9.49921 12.3148 9.55795C12.5291 9.67206 12.7697 9.44652 12.6508 9.2347C10.662 5.68952 7.06219 3.16969 2.84298 2.66742C2.7 2.6504 2.57545 2.76315 2.57545 2.90715V6.94796ZM10.6861 2.57545C10.4445 2.57545 10.3455 2.8963 10.5399 3.03978C12.5884 4.55187 14.2537 6.55327 15.3632 8.87139C15.455 9.06351 15.7366 9.06351 15.8285 8.87139C16.938 6.55319 18.6034 4.55182 20.6518 3.03978C20.8463 2.8963 20.7472 2.57545 20.5056 2.57545H10.6861ZM28.6161 14.0644C28.6161 14.199 28.5071 14.3081 28.3724 14.3081H17.6548C17.4694 14.3081 17.3545 14.1106 17.4607 13.9587C18.0024 13.1848 18.944 12.3986 20.3629 11.6891C22.411 10.6651 25.1996 9.95018 28.361 9.77258C28.4999 9.76477 28.6161 9.87574 28.6161 10.0148V14.0644ZM28.3487 2.66743C28.4916 2.65041 28.6161 2.76316 28.6161 2.90716V6.94796C28.6161 7.07851 28.5132 7.18575 28.3828 7.19234C24.8678 7.37013 21.6646 8.15886 19.2111 9.38555C19.0988 9.44174 18.9873 9.49923 18.8769 9.55799C18.6626 9.6721 18.4219 9.44654 18.5409 9.23473C20.5297 5.68939 24.1297 3.16972 28.3487 2.66743Z" fill="black"/>
</svg>
