<svg width="350" height="300" viewBox="0 0 350 300" preserveAspectRatio="none" fill="none" xmlns="http://www.w3.org/2000/svg">
<path d="M350 299.291C287.04 299.291 236 232.134 236 149.291" stroke="black" stroke-width="0.582863"/>
<path d="M350 0.291445C287.04 0.291444 236 67.001 236 149.291" stroke="black" stroke-width="0.582863"/>
<path d="M350 247.291C287.04 247.291 236 202.968 236 148.291" stroke="black" stroke-width="0.582863"/>
<path d="M350 50.2914C287.04 50.2914 236 94.1675 236 148.291" stroke="black" stroke-width="0.582863"/>
<path d="M350 199.291C287.04 199.291 236 176.906 236 149.291" stroke="black" stroke-width="0.582863"/>
<path d="M-4.19021e-05 260.348C52.467 260.348 95 210.204 95 148.348" stroke="black" stroke-width="0.582863"/>
<path d="M350 98.2914C287.04 98.2914 236 121.125 236 149.291" stroke="black" stroke-width="0.582863"/>
<path d="M-1.01924e-05 35.3478C52.467 35.3478 95 85.9396 95 148.348" stroke="black" stroke-width="0.582863"/>
<path d="M236 148.291H350" stroke="black" stroke-width="0.582863"/>
</svg>
