<svg width="944" height="570" viewBox="0 0 944 570" fill="none" xmlns="http://www.w3.org/2000/svg">
<path d="M472.879 282.426C472.879 368.882 579.532 438.969 711.096 438.969" stroke="white" stroke-width="0.87215"/>
<path d="M472.85 282.426C472.85 325.654 579.503 360.698 711.067 360.698" stroke="white" stroke-width="0.87215"/>
<path d="M472.85 282.426C472.85 195.97 579.503 125.884 711.067 125.884" stroke="white" stroke-width="0.87215"/>
<path d="M473.394 282.304C473.394 241.362 579.603 208.172 710.619 208.172" stroke="white" stroke-width="0.87215"/>
<path d="M473.393 282.304C473.393 410.43 579.602 514.296 710.618 514.296" stroke="white" stroke-width="0.87215"/>
<path d="M236.17 282.304L473.395 282.304L710.62 282.304" stroke="white" stroke-width="0.87215"/>
<path d="M472.959 282.304C472.959 154.179 579.168 50.3123 710.184 50.3123" stroke="white" stroke-width="0.654113" stroke-dasharray="2.62 2.62"/>
<path d="M493.079 178.796L500.374 182.602" stroke="white" stroke-width="0.87215"/>
<path d="M495.417 174.263L502.711 178.069" stroke="white" stroke-width="0.87215"/>
<path d="M548.705 107.22L553.915 113.588" stroke="white" stroke-width="0.87215"/>
<path d="M565.141 93.4788L569.751 100.294" stroke="white" stroke-width="0.87215"/>
<path d="M582.747 81.8186L587.034 88.8414" stroke="white" stroke-width="0.87215"/>
<path d="M587.632 79.093L591.919 86.1159" stroke="white" stroke-width="0.87215"/>
<path d="M626.299 60.6462L629.137 68.3691" stroke="white" stroke-width="0.87215"/>
</svg>
